<svg xmlns="http://www.w3.org/2000/svg" version="1.1" xmlns:xlink="http://www.w3.org/1999/xlink" xmlns:svgjs="http://svgjs.com/svgjs" width="1440" height="560" preserveAspectRatio="none" viewBox="0 0 1440 560"><g mask="url(&quot;#SvgjsMask5198&quot;)" fill="none"><rect width="1440" height="560" x="0" y="0" fill="url(#SvgjsLinearGradient5199)"></rect><g mask="url(&quot;#SvgjsMask5200&quot;)"><path d="M587.5 337.5L587.5 162.5L437.5 12.5L287.5 12.5" stroke-width="4.17" stroke="rgba(219, 231, 244, 1)"></path><path d="M581.25 337.5 a6.25 6.25 0 1 0 12.5 0 a6.25 6.25 0 1 0 -12.5 0zM281.25 12.5 a6.25 6.25 0 1 0 12.5 0 a6.25 6.25 0 1 0 -12.5 0z" fill="rgba(219, 231, 244, 1)"></path><path d="M1112.5 262.5L1087.5 237.5L1087.5 12.5" stroke-width="4.17" stroke="rgba(219, 231, 244, 1)"></path><path d="M1106.25 262.5 a6.25 6.25 0 1 0 12.5 0 a6.25 6.25 0 1 0 -12.5 0zM1081.25 12.5 a6.25 6.25 0 1 0 12.5 0 a6.25 6.25 0 1 0 -12.5 0z" fill="rgba(219, 231, 244, 1)"></path><path d="M812.5 537.5L837.5 562.5L962.5 562.5L1087.5 437.5L1162.5 437.5L1187.5 462.5L1187.5 562.5" stroke-width="4.17" stroke="rgba(219, 231, 244, 1)"></path><path d="M806.25 537.5 a6.25 6.25 0 1 0 12.5 0 a6.25 6.25 0 1 0 -12.5 0zM1181.25 562.5 a6.25 6.25 0 1 0 12.5 0 a6.25 6.25 0 1 0 -12.5 0z" fill="rgba(219, 231, 244, 1)"></path><path d="M687.5 337.5L687.5 262.5L612.5 187.5L612.5 12.5" stroke-width="4.17" stroke="rgba(219, 231, 244, 1)"></path><path d="M681.25 337.5 a6.25 6.25 0 1 0 12.5 0 a6.25 6.25 0 1 0 -12.5 0zM606.25 12.5 a6.25 6.25 0 1 0 12.5 0 a6.25 6.25 0 1 0 -12.5 0z" fill="rgba(219, 231, 244, 1)"></path><path d="M412.5 437.5L12.5 37.5L12.5 12.5" stroke-width="4.17" stroke="rgba(219, 231, 244, 1)"></path><path d="M406.25 437.5 a6.25 6.25 0 1 0 12.5 0 a6.25 6.25 0 1 0 -12.5 0zM6.25 12.5 a6.25 6.25 0 1 0 12.5 0 a6.25 6.25 0 1 0 -12.5 0z" fill="rgba(219, 231, 244, 1)"></path><path d="M462.5 512.5L462.5 187.5L487.5 162.5L487.5 87.5L437.5 37.5" stroke-width="4.17" stroke="rgba(219, 231, 244, 1)"></path><path d="M456.25 512.5 a6.25 6.25 0 1 0 12.5 0 a6.25 6.25 0 1 0 -12.5 0zM431.25 37.5 a6.25 6.25 0 1 0 12.5 0 a6.25 6.25 0 1 0 -12.5 0z" fill="rgba(219, 231, 244, 1)"></path><path d="M837.5 537.5L962.5 537.5L1112.5 387.5L1112.5 337.5L962.5 187.5" stroke-width="4.17" stroke="rgba(219, 231, 244, 1)"></path><path d="M831.25 537.5 a6.25 6.25 0 1 0 12.5 0 a6.25 6.25 0 1 0 -12.5 0zM956.25 187.5 a6.25 6.25 0 1 0 12.5 0 a6.25 6.25 0 1 0 -12.5 0z" fill="rgba(219, 231, 244, 1)"></path><path d="M1062.5 512.5L1112.5 462.5L1162.5 462.5" stroke-width="4.17" stroke="rgba(219, 231, 244, 1)"></path><path d="M1056.25 512.5 a6.25 6.25 0 1 0 12.5 0 a6.25 6.25 0 1 0 -12.5 0zM1156.25 462.5 a6.25 6.25 0 1 0 12.5 0 a6.25 6.25 0 1 0 -12.5 0z" fill="rgba(219, 231, 244, 1)"></path><path d="M1212.5 237.5L1437.5 237.5" stroke-width="4.17" stroke="rgba(219, 231, 244, 1)"></path><path d="M1206.25 237.5 a6.25 6.25 0 1 0 12.5 0 a6.25 6.25 0 1 0 -12.5 0zM1431.25 237.5 a6.25 6.25 0 1 0 12.5 0 a6.25 6.25 0 1 0 -12.5 0z" fill="rgba(219, 231, 244, 1)"></path><path d="M1312.5 487.5L1312.5 362.5L1412.5 262.5L1437.5 262.5" stroke-width="4.17" stroke="rgba(219, 231, 244, 1)"></path><path d="M1306.25 487.5 a6.25 6.25 0 1 0 12.5 0 a6.25 6.25 0 1 0 -12.5 0zM1431.25 262.5 a6.25 6.25 0 1 0 12.5 0 a6.25 6.25 0 1 0 -12.5 0z" fill="rgba(219, 231, 244, 1)"></path><path d="M787.5 437.5L862.5 512.5L962.5 512.5L1087.5 387.5L1087.5 337.5L1062.5 312.5L962.5 312.5" stroke-width="4.17" stroke="rgba(219, 231, 244, 1)"></path><path d="M781.25 437.5 a6.25 6.25 0 1 0 12.5 0 a6.25 6.25 0 1 0 -12.5 0zM956.25 312.5 a6.25 6.25 0 1 0 12.5 0 a6.25 6.25 0 1 0 -12.5 0z" fill="rgba(219, 231, 244, 1)"></path><path d="M1087.5 562.5L1037.5 512.5" stroke-width="4.17" stroke="rgba(219, 231, 244, 1)"></path><path d="M1081.25 562.5 a6.25 6.25 0 1 0 12.5 0 a6.25 6.25 0 1 0 -12.5 0zM1031.25 512.5 a6.25 6.25 0 1 0 12.5 0 a6.25 6.25 0 1 0 -12.5 0z" fill="rgba(219, 231, 244, 1)"></path><path d="M212.5 537.5L212.5 262.5L12.5 62.5" stroke-width="4.17" stroke="rgba(219, 231, 244, 1)"></path><path d="M206.25 537.5 a6.25 6.25 0 1 0 12.5 0 a6.25 6.25 0 1 0 -12.5 0zM6.25 62.5 a6.25 6.25 0 1 0 12.5 0 a6.25 6.25 0 1 0 -12.5 0z" fill="rgba(219, 231, 244, 1)"></path><path d="M1412.5 112.5L1312.5 212.5L1187.5 212.5L1112.5 287.5L1112.5 312.5L1262.5 462.5" stroke-width="4.17" stroke="rgba(219, 231, 244, 1)"></path><path d="M1406.25 112.5 a6.25 6.25 0 1 0 12.5 0 a6.25 6.25 0 1 0 -12.5 0zM1256.25 462.5 a6.25 6.25 0 1 0 12.5 0 a6.25 6.25 0 1 0 -12.5 0z" fill="rgba(219, 231, 244, 1)"></path><path d="M87.5 62.5L62.5 62.5L37.5 37.5L37.5 12.5" stroke-width="4.17" stroke="rgba(219, 231, 244, 1)"></path><path d="M81.25 62.5 a6.25 6.25 0 1 0 12.5 0 a6.25 6.25 0 1 0 -12.5 0zM31.25 12.5 a6.25 6.25 0 1 0 12.5 0 a6.25 6.25 0 1 0 -12.5 0z" fill="rgba(219, 231, 244, 1)"></path><path d="M662.5 87.5L662.5 112.5L687.5 137.5L737.5 137.5L862.5 12.5L912.5 12.5L1062.5 162.5L1062.5 212.5" stroke-width="4.17" stroke="rgba(219, 231, 244, 1)"></path><path d="M656.25 87.5 a6.25 6.25 0 1 0 12.5 0 a6.25 6.25 0 1 0 -12.5 0zM1056.25 212.5 a6.25 6.25 0 1 0 12.5 0 a6.25 6.25 0 1 0 -12.5 0z" fill="rgba(219, 231, 244, 1)"></path><path d="M762.5 462.5L662.5 562.5L287.5 562.5" stroke-width="4.17" stroke="rgba(219, 231, 244, 1)"></path><path d="M756.25 462.5 a6.25 6.25 0 1 0 12.5 0 a6.25 6.25 0 1 0 -12.5 0zM281.25 562.5 a6.25 6.25 0 1 0 12.5 0 a6.25 6.25 0 1 0 -12.5 0z" fill="rgba(219, 231, 244, 1)"></path><path d="M1037.5 87.5L962.5 12.5L937.5 12.5" stroke-width="4.17" stroke="rgba(219, 231, 244, 1)"></path><path d="M1031.25 87.5 a6.25 6.25 0 1 0 12.5 0 a6.25 6.25 0 1 0 -12.5 0zM931.25 12.5 a6.25 6.25 0 1 0 12.5 0 a6.25 6.25 0 1 0 -12.5 0z" fill="rgba(219, 231, 244, 1)"></path><path d="M1237.5 262.5L1162.5 262.5L1137.5 287.5L1137.5 312.5L1287.5 462.5L1287.5 562.5" stroke-width="4.17" stroke="rgba(219, 231, 244, 1)"></path><path d="M1231.25 262.5 a6.25 6.25 0 1 0 12.5 0 a6.25 6.25 0 1 0 -12.5 0zM1281.25 562.5 a6.25 6.25 0 1 0 12.5 0 a6.25 6.25 0 1 0 -12.5 0z" fill="rgba(219, 231, 244, 1)"></path><path d="M337.5 87.5L337.5 37.5" stroke-width="4.17" stroke="rgba(219, 231, 244, 1)"></path><path d="M331.25 87.5 a6.25 6.25 0 1 0 12.5 0 a6.25 6.25 0 1 0 -12.5 0zM331.25 37.5 a6.25 6.25 0 1 0 12.5 0 a6.25 6.25 0 1 0 -12.5 0z" fill="rgba(219, 231, 244, 1)"></path><path d="M262.5 412.5L362.5 412.5L437.5 487.5L437.5 537.5" stroke-width="4.17" stroke="rgba(219, 231, 244, 1)"></path><path d="M256.25 412.5 a6.25 6.25 0 1 0 12.5 0 a6.25 6.25 0 1 0 -12.5 0zM431.25 537.5 a6.25 6.25 0 1 0 12.5 0 a6.25 6.25 0 1 0 -12.5 0z" fill="rgba(219, 231, 244, 1)"></path><path d="M1137.5 362.5L1187.5 412.5L1187.5 437.5L1262.5 512.5L1262.5 562.5" stroke-width="4.17" stroke="rgba(219, 231, 244, 1)"></path><path d="M1131.25 362.5 a6.25 6.25 0 1 0 12.5 0 a6.25 6.25 0 1 0 -12.5 0zM1256.25 562.5 a6.25 6.25 0 1 0 12.5 0 a6.25 6.25 0 1 0 -12.5 0z" fill="rgba(219, 231, 244, 1)"></path><path d="M1337.5 162.5L1287.5 162.5L1262.5 187.5L1137.5 187.5L1112.5 162.5L1112.5 12.5" stroke-width="4.17" stroke="rgba(219, 231, 244, 1)"></path><path d="M1331.25 162.5 a6.25 6.25 0 1 0 12.5 0 a6.25 6.25 0 1 0 -12.5 0zM1106.25 12.5 a6.25 6.25 0 1 0 12.5 0 a6.25 6.25 0 1 0 -12.5 0z" fill="rgba(219, 231, 244, 1)"></path><path d="M137.5 312.5L12.5 437.5L12.5 562.5" stroke-width="4.17" stroke="rgba(219, 231, 244, 1)"></path><path d="M131.25 312.5 a6.25 6.25 0 1 0 12.5 0 a6.25 6.25 0 1 0 -12.5 0zM6.25 562.5 a6.25 6.25 0 1 0 12.5 0 a6.25 6.25 0 1 0 -12.5 0z" fill="rgba(219, 231, 244, 1)"></path><path d="M862.5 412.5L937.5 337.5L987.5 337.5L1037.5 387.5L1037.5 412.5L962.5 487.5L862.5 487.5L762.5 387.5" stroke-width="4.17" stroke="rgba(219, 231, 244, 1)"></path><path d="M856.25 412.5 a6.25 6.25 0 1 0 12.5 0 a6.25 6.25 0 1 0 -12.5 0zM756.25 387.5 a6.25 6.25 0 1 0 12.5 0 a6.25 6.25 0 1 0 -12.5 0z" fill="rgba(219, 231, 244, 1)"></path><path d="M737.5 312.5L762.5 312.5L787.5 337.5L912.5 337.5L987.5 262.5L987.5 237.5L912.5 162.5L912.5 137.5L962.5 87.5" stroke-width="4.17" stroke="rgba(219, 231, 244, 1)"></path><path d="M731.25 312.5 a6.25 6.25 0 1 0 12.5 0 a6.25 6.25 0 1 0 -12.5 0zM956.25 87.5 a6.25 6.25 0 1 0 12.5 0 a6.25 6.25 0 1 0 -12.5 0z" fill="rgba(219, 231, 244, 1)"></path><path d="M1412.5 462.5L1412.5 287.5" stroke-width="4.17" stroke="rgba(219, 231, 244, 1)"></path><path d="M1406.25 462.5 a6.25 6.25 0 1 0 12.5 0 a6.25 6.25 0 1 0 -12.5 0zM1406.25 287.5 a6.25 6.25 0 1 0 12.5 0 a6.25 6.25 0 1 0 -12.5 0z" fill="rgba(219, 231, 244, 1)"></path><path d="M687.5 362.5L737.5 412.5L762.5 412.5" stroke-width="4.17" stroke="rgba(219, 231, 244, 1)"></path><path d="M681.25 362.5 a6.25 6.25 0 1 0 12.5 0 a6.25 6.25 0 1 0 -12.5 0zM756.25 412.5 a6.25 6.25 0 1 0 12.5 0 a6.25 6.25 0 1 0 -12.5 0z" fill="rgba(219, 231, 244, 1)"></path><path d="M962.5 412.5L912.5 412.5L862.5 462.5" stroke-width="4.17" stroke="rgba(219, 231, 244, 1)"></path><path d="M956.25 412.5 a6.25 6.25 0 1 0 12.5 0 a6.25 6.25 0 1 0 -12.5 0zM856.25 462.5 a6.25 6.25 0 1 0 12.5 0 a6.25 6.25 0 1 0 -12.5 0z" fill="rgba(219, 231, 244, 1)"></path><path d="M537.5 262.5L537.5 312.5L487.5 362.5L487.5 412.5L612.5 537.5L662.5 537.5L762.5 437.5" stroke-width="4.17" stroke="rgba(219, 231, 244, 1)"></path><path d="M531.25 262.5 a6.25 6.25 0 1 0 12.5 0 a6.25 6.25 0 1 0 -12.5 0zM756.25 437.5 a6.25 6.25 0 1 0 12.5 0 a6.25 6.25 0 1 0 -12.5 0z" fill="rgba(219, 231, 244, 1)"></path><path d="M1437.5 112.5L1437.5 212.5" stroke-width="4.17" stroke="rgba(219, 231, 244, 1)"></path><path d="M1431.25 112.5 a6.25 6.25 0 1 0 12.5 0 a6.25 6.25 0 1 0 -12.5 0zM1431.25 212.5 a6.25 6.25 0 1 0 12.5 0 a6.25 6.25 0 1 0 -12.5 0z" fill="rgba(219, 231, 244, 1)"></path><path d="M662.5 362.5L512.5 362.5" stroke-width="4.17" stroke="rgba(219, 231, 244, 1)"></path><path d="M656.25 362.5 a6.25 6.25 0 1 0 12.5 0 a6.25 6.25 0 1 0 -12.5 0zM506.25 362.5 a6.25 6.25 0 1 0 12.5 0 a6.25 6.25 0 1 0 -12.5 0z" fill="rgba(219, 231, 244, 1)"></path><path d="M62.5 137.5L12.5 187.5L12.5 412.5" stroke-width="4.17" stroke="rgba(219, 231, 244, 1)"></path><path d="M56.25 137.5 a6.25 6.25 0 1 0 12.5 0 a6.25 6.25 0 1 0 -12.5 0zM6.25 412.5 a6.25 6.25 0 1 0 12.5 0 a6.25 6.25 0 1 0 -12.5 0z" fill="rgba(219, 231, 244, 1)"></path><path d="M812.5 137.5L712.5 237.5L712.5 362.5L737.5 387.5" stroke-width="4.17" stroke="rgba(219, 231, 244, 1)"></path><path d="M806.25 137.5 a6.25 6.25 0 1 0 12.5 0 a6.25 6.25 0 1 0 -12.5 0zM731.25 387.5 a6.25 6.25 0 1 0 12.5 0 a6.25 6.25 0 1 0 -12.5 0z" fill="rgba(219, 231, 244, 1)"></path><path d="M1412.5 87.5L1137.5 87.5" stroke-width="4.17" stroke="rgba(219, 231, 244, 1)"></path><path d="M1406.25 87.5 a6.25 6.25 0 1 0 12.5 0 a6.25 6.25 0 1 0 -12.5 0zM1131.25 87.5 a6.25 6.25 0 1 0 12.5 0 a6.25 6.25 0 1 0 -12.5 0z" fill="rgba(219, 231, 244, 1)"></path><path d="M1137.5 112.5L1137.5 162.5" stroke-width="4.17" stroke="rgba(219, 231, 244, 1)"></path><path d="M1131.25 112.5 a6.25 6.25 0 1 0 12.5 0 a6.25 6.25 0 1 0 -12.5 0zM1131.25 162.5 a6.25 6.25 0 1 0 12.5 0 a6.25 6.25 0 1 0 -12.5 0z" fill="rgba(219, 231, 244, 1)"></path><path d="M412.5 387.5L437.5 412.5L437.5 462.5" stroke-width="4.17" stroke="rgba(219, 231, 244, 1)"></path><path d="M406.25 387.5 a6.25 6.25 0 1 0 12.5 0 a6.25 6.25 0 1 0 -12.5 0zM431.25 462.5 a6.25 6.25 0 1 0 12.5 0 a6.25 6.25 0 1 0 -12.5 0z" fill="rgba(219, 231, 244, 1)"></path><path d="M187.5 312.5L187.5 262.5L87.5 162.5L62.5 162.5L37.5 187.5L37.5 387.5" stroke-width="4.17" stroke="rgba(219, 231, 244, 1)"></path><path d="M181.25 312.5 a6.25 6.25 0 1 0 12.5 0 a6.25 6.25 0 1 0 -12.5 0zM31.25 387.5 a6.25 6.25 0 1 0 12.5 0 a6.25 6.25 0 1 0 -12.5 0z" fill="rgba(219, 231, 244, 1)"></path><path d="M662.5 487.5L662.5 437.5L687.5 412.5L687.5 387.5" stroke-width="4.17" stroke="rgba(219, 231, 244, 1)"></path><path d="M656.25 487.5 a6.25 6.25 0 1 0 12.5 0 a6.25 6.25 0 1 0 -12.5 0zM681.25 387.5 a6.25 6.25 0 1 0 12.5 0 a6.25 6.25 0 1 0 -12.5 0z" fill="rgba(219, 231, 244, 1)"></path><path d="M1137.5 487.5L1112.5 487.5L1087.5 512.5L1087.5 537.5L1112.5 562.5L1162.5 562.5" stroke-width="4.17" stroke="rgba(219, 231, 244, 1)"></path><path d="M1131.25 487.5 a6.25 6.25 0 1 0 12.5 0 a6.25 6.25 0 1 0 -12.5 0zM1156.25 562.5 a6.25 6.25 0 1 0 12.5 0 a6.25 6.25 0 1 0 -12.5 0z" fill="rgba(219, 231, 244, 1)"></path><path d="M512.5 62.5L587.5 137.5" stroke-width="4.17" stroke="rgba(219, 231, 244, 1)"></path><path d="M506.25 62.5 a6.25 6.25 0 1 0 12.5 0 a6.25 6.25 0 1 0 -12.5 0zM581.25 137.5 a6.25 6.25 0 1 0 12.5 0 a6.25 6.25 0 1 0 -12.5 0z" fill="rgba(219, 231, 244, 1)"></path><path d="M287.5 137.5L212.5 212.5" stroke-width="4.17" stroke="rgba(219, 231, 244, 1)"></path><path d="M281.25 137.5 a6.25 6.25 0 1 0 12.5 0 a6.25 6.25 0 1 0 -12.5 0zM206.25 212.5 a6.25 6.25 0 1 0 12.5 0 a6.25 6.25 0 1 0 -12.5 0z" fill="rgba(219, 231, 244, 1)"></path><path d="M62.5 187.5L87.5 212.5L87.5 337.5L62.5 362.5" stroke-width="4.17" stroke="rgba(219, 231, 244, 1)"></path><path d="M56.25 187.5 a6.25 6.25 0 1 0 12.5 0 a6.25 6.25 0 1 0 -12.5 0zM56.25 362.5 a6.25 6.25 0 1 0 12.5 0 a6.25 6.25 0 1 0 -12.5 0z" fill="rgba(219, 231, 244, 1)"></path><path d="M987.5 12.5L1062.5 87.5L1062.5 137.5" stroke-width="4.17" stroke="rgba(219, 231, 244, 1)"></path><path d="M981.25 12.5 a6.25 6.25 0 1 0 12.5 0 a6.25 6.25 0 1 0 -12.5 0zM1056.25 137.5 a6.25 6.25 0 1 0 12.5 0 a6.25 6.25 0 1 0 -12.5 0z" fill="rgba(219, 231, 244, 1)"></path><path d="M462.5 162.5L437.5 187.5L287.5 187.5L237.5 237.5" stroke-width="4.17" stroke="rgba(219, 231, 244, 1)"></path><path d="M456.25 162.5 a6.25 6.25 0 1 0 12.5 0 a6.25 6.25 0 1 0 -12.5 0zM231.25 237.5 a6.25 6.25 0 1 0 12.5 0 a6.25 6.25 0 1 0 -12.5 0z" fill="rgba(219, 231, 244, 1)"></path><path d="M387.5 37.5L462.5 112.5L462.5 137.5L437.5 162.5L287.5 162.5" stroke-width="4.17" stroke="rgba(219, 231, 244, 1)"></path><path d="M381.25 37.5 a6.25 6.25 0 1 0 12.5 0 a6.25 6.25 0 1 0 -12.5 0zM281.25 162.5 a6.25 6.25 0 1 0 12.5 0 a6.25 6.25 0 1 0 -12.5 0z" fill="rgba(219, 231, 244, 1)"></path><path d="M937.5 437.5L987.5 437.5L1012.5 412.5L1012.5 387.5L987.5 362.5L937.5 362.5L912.5 387.5" stroke-width="4.17" stroke="rgba(219, 231, 244, 1)"></path><path d="M931.25 437.5 a6.25 6.25 0 1 0 12.5 0 a6.25 6.25 0 1 0 -12.5 0zM906.25 387.5 a6.25 6.25 0 1 0 12.5 0 a6.25 6.25 0 1 0 -12.5 0z" fill="rgba(219, 231, 244, 1)"></path><path d="M1337.5 287.5L1237.5 387.5" stroke-width="4.17" stroke="rgba(219, 231, 244, 1)"></path><path d="M1331.25 287.5 a6.25 6.25 0 1 0 12.5 0 a6.25 6.25 0 1 0 -12.5 0zM1231.25 387.5 a6.25 6.25 0 1 0 12.5 0 a6.25 6.25 0 1 0 -12.5 0z" fill="rgba(219, 231, 244, 1)"></path><path d="M862.5 162.5L812.5 112.5L812.5 87.5L862.5 37.5L912.5 37.5L937.5 62.5L937.5 87.5L887.5 137.5L862.5 137.5L837.5 112.5L837.5 87.5L862.5 62.5L912.5 62.5" stroke-width="4.17" stroke="rgba(219, 231, 244, 1)"></path><path d="M856.25 162.5 a6.25 6.25 0 1 0 12.5 0 a6.25 6.25 0 1 0 -12.5 0zM906.25 62.5 a6.25 6.25 0 1 0 12.5 0 a6.25 6.25 0 1 0 -12.5 0z" fill="rgba(219, 231, 244, 1)"></path><path d="M262.5 487.5L237.5 512.5L237.5 562.5" stroke-width="4.17" stroke="rgba(219, 231, 244, 1)"></path><path d="M256.25 487.5 a6.25 6.25 0 1 0 12.5 0 a6.25 6.25 0 1 0 -12.5 0zM231.25 562.5 a6.25 6.25 0 1 0 12.5 0 a6.25 6.25 0 1 0 -12.5 0z" fill="rgba(219, 231, 244, 1)"></path><path d="M787.5 362.5L737.5 362.5" stroke-width="4.17" stroke="rgba(219, 231, 244, 1)"></path><path d="M781.25 362.5 a6.25 6.25 0 1 0 12.5 0 a6.25 6.25 0 1 0 -12.5 0zM731.25 362.5 a6.25 6.25 0 1 0 12.5 0 a6.25 6.25 0 1 0 -12.5 0z" fill="rgba(219, 231, 244, 1)"></path><path d="M962.5 137.5L1087.5 262.5L1087.5 287.5" stroke-width="4.17" stroke="rgba(219, 231, 244, 1)"></path><path d="M956.25 137.5 a6.25 6.25 0 1 0 12.5 0 a6.25 6.25 0 1 0 -12.5 0zM1081.25 287.5 a6.25 6.25 0 1 0 12.5 0 a6.25 6.25 0 1 0 -12.5 0z" fill="rgba(219, 231, 244, 1)"></path><path d="M437.5 137.5L437.5 112.5L362.5 37.5" stroke-width="4.17" stroke="rgba(219, 231, 244, 1)"></path><path d="M431.25 137.5 a6.25 6.25 0 1 0 12.5 0 a6.25 6.25 0 1 0 -12.5 0zM356.25 37.5 a6.25 6.25 0 1 0 12.5 0 a6.25 6.25 0 1 0 -12.5 0z" fill="rgba(219, 231, 244, 1)"></path><path d="M1187.5 12.5L1187.5 62.5" stroke-width="4.17" stroke="rgba(219, 231, 244, 1)"></path><path d="M1181.25 12.5 a6.25 6.25 0 1 0 12.5 0 a6.25 6.25 0 1 0 -12.5 0zM1181.25 62.5 a6.25 6.25 0 1 0 12.5 0 a6.25 6.25 0 1 0 -12.5 0z" fill="rgba(219, 231, 244, 1)"></path><path d="M762.5 162.5L637.5 162.5" stroke-width="4.17" stroke="rgba(219, 231, 244, 1)"></path><path d="M756.25 162.5 a6.25 6.25 0 1 0 12.5 0 a6.25 6.25 0 1 0 -12.5 0zM631.25 162.5 a6.25 6.25 0 1 0 12.5 0 a6.25 6.25 0 1 0 -12.5 0z" fill="rgba(219, 231, 244, 1)"></path><path d="M187.5 87.5L237.5 137.5L237.5 162.5L212.5 187.5L187.5 187.5L87.5 87.5" stroke-width="4.17" stroke="rgba(219, 231, 244, 1)"></path><path d="M181.25 87.5 a6.25 6.25 0 1 0 12.5 0 a6.25 6.25 0 1 0 -12.5 0zM81.25 87.5 a6.25 6.25 0 1 0 12.5 0 a6.25 6.25 0 1 0 -12.5 0z" fill="rgba(219, 231, 244, 1)"></path><path d="M687.5 562.5L787.5 462.5" stroke-width="4.17" stroke="rgba(219, 231, 244, 1)"></path><path d="M681.25 562.5 a6.25 6.25 0 1 0 12.5 0 a6.25 6.25 0 1 0 -12.5 0zM781.25 462.5 a6.25 6.25 0 1 0 12.5 0 a6.25 6.25 0 1 0 -12.5 0z" fill="rgba(219, 231, 244, 1)"></path><path d="M1387.5 462.5L1387.5 562.5" stroke-width="4.17" stroke="rgba(219, 231, 244, 1)"></path><path d="M1381.25 462.5 a6.25 6.25 0 1 0 12.5 0 a6.25 6.25 0 1 0 -12.5 0zM1381.25 562.5 a6.25 6.25 0 1 0 12.5 0 a6.25 6.25 0 1 0 -12.5 0z" fill="rgba(219, 231, 244, 1)"></path><path d="M937.5 287.5L912.5 312.5L787.5 312.5L737.5 262.5L737.5 237.5L812.5 162.5L837.5 162.5L862.5 187.5L862.5 287.5" stroke-width="4.17" stroke="rgba(219, 231, 244, 1)"></path><path d="M931.25 287.5 a6.25 6.25 0 1 0 12.5 0 a6.25 6.25 0 1 0 -12.5 0zM856.25 287.5 a6.25 6.25 0 1 0 12.5 0 a6.25 6.25 0 1 0 -12.5 0z" fill="rgba(219, 231, 244, 1)"></path><path d="M1362.5 62.5L1437.5 62.5" stroke-width="4.17" stroke="rgba(219, 231, 244, 1)"></path><path d="M1356.25 62.5 a6.25 6.25 0 1 0 12.5 0 a6.25 6.25 0 1 0 -12.5 0zM1431.25 62.5 a6.25 6.25 0 1 0 12.5 0 a6.25 6.25 0 1 0 -12.5 0z" fill="rgba(219, 231, 244, 1)"></path><path d="M1062.5 62.5L1012.5 12.5" stroke-width="4.17" stroke="rgba(219, 231, 244, 1)"></path><path d="M1056.25 62.5 a6.25 6.25 0 1 0 12.5 0 a6.25 6.25 0 1 0 -12.5 0zM1006.25 12.5 a6.25 6.25 0 1 0 12.5 0 a6.25 6.25 0 1 0 -12.5 0z" fill="rgba(219, 231, 244, 1)"></path><path d="M237.5 37.5L212.5 12.5L62.5 12.5" stroke-width="4.17" stroke="rgba(219, 231, 244, 1)"></path><path d="M231.25 37.5 a6.25 6.25 0 1 0 12.5 0 a6.25 6.25 0 1 0 -12.5 0zM56.25 12.5 a6.25 6.25 0 1 0 12.5 0 a6.25 6.25 0 1 0 -12.5 0z" fill="rgba(219, 231, 244, 1)"></path><path d="M237.5 112.5L162.5 37.5L62.5 37.5" stroke-width="4.17" stroke="rgba(219, 231, 244, 1)"></path><path d="M231.25 112.5 a6.25 6.25 0 1 0 12.5 0 a6.25 6.25 0 1 0 -12.5 0zM56.25 37.5 a6.25 6.25 0 1 0 12.5 0 a6.25 6.25 0 1 0 -12.5 0z" fill="rgba(219, 231, 244, 1)"></path><path d="M662.5 312.5L662.5 262.5L612.5 212.5" stroke-width="4.17" stroke="rgba(219, 231, 244, 1)"></path><path d="M656.25 312.5 a6.25 6.25 0 1 0 12.5 0 a6.25 6.25 0 1 0 -12.5 0zM606.25 212.5 a6.25 6.25 0 1 0 12.5 0 a6.25 6.25 0 1 0 -12.5 0z" fill="rgba(219, 231, 244, 1)"></path><path d="M362.5 462.5L412.5 512.5L412.5 537.5" stroke-width="4.17" stroke="rgba(219, 231, 244, 1)"></path><path d="M356.25 462.5 a6.25 6.25 0 1 0 12.5 0 a6.25 6.25 0 1 0 -12.5 0zM406.25 537.5 a6.25 6.25 0 1 0 12.5 0 a6.25 6.25 0 1 0 -12.5 0z" fill="rgba(219, 231, 244, 1)"></path><path d="M437.5 212.5L312.5 212.5L262.5 262.5" stroke-width="4.17" stroke="rgba(219, 231, 244, 1)"></path><path d="M431.25 212.5 a6.25 6.25 0 1 0 12.5 0 a6.25 6.25 0 1 0 -12.5 0zM256.25 262.5 a6.25 6.25 0 1 0 12.5 0 a6.25 6.25 0 1 0 -12.5 0z" fill="rgba(219, 231, 244, 1)"></path><path d="M37.5 462.5L37.5 437.5L162.5 312.5L162.5 262.5L112.5 212.5" stroke-width="4.17" stroke="rgba(219, 231, 244, 1)"></path><path d="M31.25 462.5 a6.25 6.25 0 1 0 12.5 0 a6.25 6.25 0 1 0 -12.5 0zM106.25 212.5 a6.25 6.25 0 1 0 12.5 0 a6.25 6.25 0 1 0 -12.5 0z" fill="rgba(219, 231, 244, 1)"></path><path d="M1262.5 112.5L1162.5 112.5" stroke-width="4.17" stroke="rgba(219, 231, 244, 1)"></path><path d="M1256.25 112.5 a6.25 6.25 0 1 0 12.5 0 a6.25 6.25 0 1 0 -12.5 0zM1156.25 112.5 a6.25 6.25 0 1 0 12.5 0 a6.25 6.25 0 1 0 -12.5 0z" fill="rgba(219, 231, 244, 1)"></path><path d="M312.5 437.5L312.5 537.5" stroke-width="4.17" stroke="rgba(219, 231, 244, 1)"></path><path d="M306.25 437.5 a6.25 6.25 0 1 0 12.5 0 a6.25 6.25 0 1 0 -12.5 0zM306.25 537.5 a6.25 6.25 0 1 0 12.5 0 a6.25 6.25 0 1 0 -12.5 0z" fill="rgba(219, 231, 244, 1)"></path><path d="M712.5 62.5L737.5 87.5L762.5 87.5L787.5 62.5L787.5 12.5" stroke-width="4.17" stroke="rgba(219, 231, 244, 1)"></path><path d="M706.25 62.5 a6.25 6.25 0 1 0 12.5 0 a6.25 6.25 0 1 0 -12.5 0zM781.25 12.5 a6.25 6.25 0 1 0 12.5 0 a6.25 6.25 0 1 0 -12.5 0z" fill="rgba(219, 231, 244, 1)"></path><path d="M1262.5 287.5L1312.5 287.5L1337.5 262.5L1387.5 262.5" stroke-width="4.17" stroke="rgba(219, 231, 244, 1)"></path><path d="M1256.25 287.5 a6.25 6.25 0 1 0 12.5 0 a6.25 6.25 0 1 0 -12.5 0zM1381.25 262.5 a6.25 6.25 0 1 0 12.5 0 a6.25 6.25 0 1 0 -12.5 0z" fill="rgba(219, 231, 244, 1)"></path><path d="M237.5 312.5L237.5 462.5" stroke-width="4.17" stroke="rgba(219, 231, 244, 1)"></path><path d="M231.25 312.5 a6.25 6.25 0 1 0 12.5 0 a6.25 6.25 0 1 0 -12.5 0zM231.25 462.5 a6.25 6.25 0 1 0 12.5 0 a6.25 6.25 0 1 0 -12.5 0z" fill="rgba(219, 231, 244, 1)"></path><path d="M1362.5 12.5L1387.5 37.5L1412.5 37.5L1437.5 12.5" stroke-width="4.17" stroke="rgba(219, 231, 244, 1)"></path><path d="M1356.25 12.5 a6.25 6.25 0 1 0 12.5 0 a6.25 6.25 0 1 0 -12.5 0zM1431.25 12.5 a6.25 6.25 0 1 0 12.5 0 a6.25 6.25 0 1 0 -12.5 0z" fill="rgba(219, 231, 244, 1)"></path><path d="M637.5 512.5L637.5 387.5" stroke-width="4.17" stroke="rgba(219, 231, 244, 1)"></path><path d="M631.25 512.5 a6.25 6.25 0 1 0 12.5 0 a6.25 6.25 0 1 0 -12.5 0zM631.25 387.5 a6.25 6.25 0 1 0 12.5 0 a6.25 6.25 0 1 0 -12.5 0z" fill="rgba(219, 231, 244, 1)"></path><path d="M387.5 387.5L287.5 287.5L287.5 262.5" stroke-width="4.17" stroke="rgba(219, 231, 244, 1)"></path><path d="M381.25 387.5 a6.25 6.25 0 1 0 12.5 0 a6.25 6.25 0 1 0 -12.5 0zM281.25 262.5 a6.25 6.25 0 1 0 12.5 0 a6.25 6.25 0 1 0 -12.5 0z" fill="rgba(219, 231, 244, 1)"></path><path d="M812.5 387.5L837.5 362.5L862.5 362.5" stroke-width="4.17" stroke="rgba(219, 231, 244, 1)"></path><path d="M806.25 387.5 a6.25 6.25 0 1 0 12.5 0 a6.25 6.25 0 1 0 -12.5 0zM856.25 362.5 a6.25 6.25 0 1 0 12.5 0 a6.25 6.25 0 1 0 -12.5 0z" fill="rgba(219, 231, 244, 1)"></path><path d="M412.5 287.5L362.5 237.5L337.5 237.5L312.5 262.5L312.5 287.5L387.5 362.5L437.5 362.5" stroke-width="4.17" stroke="rgba(219, 231, 244, 1)"></path><path d="M406.25 287.5 a6.25 6.25 0 1 0 12.5 0 a6.25 6.25 0 1 0 -12.5 0zM431.25 362.5 a6.25 6.25 0 1 0 12.5 0 a6.25 6.25 0 1 0 -12.5 0z" fill="rgba(219, 231, 244, 1)"></path><path d="M1212.5 12.5L1212.5 62.5" stroke-width="4.17" stroke="rgba(219, 231, 244, 1)"></path><path d="M1206.25 12.5 a6.25 6.25 0 1 0 12.5 0 a6.25 6.25 0 1 0 -12.5 0zM1206.25 62.5 a6.25 6.25 0 1 0 12.5 0 a6.25 6.25 0 1 0 -12.5 0z" fill="rgba(219, 231, 244, 1)"></path><path d="M1212.5 362.5L1162.5 312.5L1162.5 287.5" stroke-width="4.17" stroke="rgba(219, 231, 244, 1)"></path><path d="M1206.25 362.5 a6.25 6.25 0 1 0 12.5 0 a6.25 6.25 0 1 0 -12.5 0zM1156.25 287.5 a6.25 6.25 0 1 0 12.5 0 a6.25 6.25 0 1 0 -12.5 0z" fill="rgba(219, 231, 244, 1)"></path><path d="M937.5 212.5L887.5 162.5" stroke-width="4.17" stroke="rgba(219, 231, 244, 1)"></path><path d="M931.25 212.5 a6.25 6.25 0 1 0 12.5 0 a6.25 6.25 0 1 0 -12.5 0zM881.25 162.5 a6.25 6.25 0 1 0 12.5 0 a6.25 6.25 0 1 0 -12.5 0z" fill="rgba(219, 231, 244, 1)"></path><path d="M537.5 62.5L587.5 12.5" stroke-width="4.17" stroke="rgba(219, 231, 244, 1)"></path><path d="M531.25 62.5 a6.25 6.25 0 1 0 12.5 0 a6.25 6.25 0 1 0 -12.5 0zM581.25 12.5 a6.25 6.25 0 1 0 12.5 0 a6.25 6.25 0 1 0 -12.5 0z" fill="rgba(219, 231, 244, 1)"></path><path d="M1412.5 537.5L1412.5 487.5L1437.5 462.5L1437.5 287.5" stroke-width="4.17" stroke="rgba(219, 231, 244, 1)"></path><path d="M1406.25 537.5 a6.25 6.25 0 1 0 12.5 0 a6.25 6.25 0 1 0 -12.5 0zM1431.25 287.5 a6.25 6.25 0 1 0 12.5 0 a6.25 6.25 0 1 0 -12.5 0z" fill="rgba(219, 231, 244, 1)"></path><path d="M587.5 37.5L587.5 112.5" stroke-width="4.17" stroke="rgba(219, 231, 244, 1)"></path><path d="M581.25 37.5 a6.25 6.25 0 1 0 12.5 0 a6.25 6.25 0 1 0 -12.5 0zM581.25 112.5 a6.25 6.25 0 1 0 12.5 0 a6.25 6.25 0 1 0 -12.5 0z" fill="rgba(219, 231, 244, 1)"></path><path d="M362.5 137.5L312.5 87.5L312.5 37.5" stroke-width="4.17" stroke="rgba(219, 231, 244, 1)"></path><path d="M356.25 137.5 a6.25 6.25 0 1 0 12.5 0 a6.25 6.25 0 1 0 -12.5 0zM306.25 37.5 a6.25 6.25 0 1 0 12.5 0 a6.25 6.25 0 1 0 -12.5 0z" fill="rgba(219, 231, 244, 1)"></path><path d="M1337.5 487.5L1312.5 512.5L1312.5 562.5" stroke-width="4.17" stroke="rgba(219, 231, 244, 1)"></path><path d="M1331.25 487.5 a6.25 6.25 0 1 0 12.5 0 a6.25 6.25 0 1 0 -12.5 0zM1306.25 562.5 a6.25 6.25 0 1 0 12.5 0 a6.25 6.25 0 1 0 -12.5 0z" fill="rgba(219, 231, 244, 1)"></path><path d="M337.5 487.5L337.5 462.5L362.5 437.5" stroke-width="4.17" stroke="rgba(219, 231, 244, 1)"></path><path d="M331.25 487.5 a6.25 6.25 0 1 0 12.5 0 a6.25 6.25 0 1 0 -12.5 0zM356.25 437.5 a6.25 6.25 0 1 0 12.5 0 a6.25 6.25 0 1 0 -12.5 0z" fill="rgba(219, 231, 244, 1)"></path><path d="M787.5 537.5L737.5 537.5L712.5 562.5" stroke-width="4.17" stroke="rgba(219, 231, 244, 1)"></path><path d="M781.25 537.5 a6.25 6.25 0 1 0 12.5 0 a6.25 6.25 0 1 0 -12.5 0zM706.25 562.5 a6.25 6.25 0 1 0 12.5 0 a6.25 6.25 0 1 0 -12.5 0z" fill="rgba(219, 231, 244, 1)"></path><path d="M637.5 87.5L637.5 137.5" stroke-width="4.17" stroke="rgba(219, 231, 244, 1)"></path><path d="M631.25 87.5 a6.25 6.25 0 1 0 12.5 0 a6.25 6.25 0 1 0 -12.5 0zM631.25 137.5 a6.25 6.25 0 1 0 12.5 0 a6.25 6.25 0 1 0 -12.5 0z" fill="rgba(219, 231, 244, 1)"></path><path d="M687.5 12.5L637.5 12.5" stroke-width="4.17" stroke="rgba(219, 231, 244, 1)"></path><path d="M681.25 12.5 a6.25 6.25 0 1 0 12.5 0 a6.25 6.25 0 1 0 -12.5 0zM631.25 12.5 a6.25 6.25 0 1 0 12.5 0 a6.25 6.25 0 1 0 -12.5 0z" fill="rgba(219, 231, 244, 1)"></path><path d="M1237.5 37.5L1262.5 62.5L1337.5 62.5L1362.5 37.5" stroke-width="4.17" stroke="rgba(219, 231, 244, 1)"></path><path d="M1231.25 37.5 a6.25 6.25 0 1 0 12.5 0 a6.25 6.25 0 1 0 -12.5 0zM1356.25 37.5 a6.25 6.25 0 1 0 12.5 0 a6.25 6.25 0 1 0 -12.5 0z" fill="rgba(219, 231, 244, 1)"></path><path d="M37.5 512.5L37.5 537.5L62.5 562.5" stroke-width="4.17" stroke="rgba(219, 231, 244, 1)"></path><path d="M31.25 512.5 a6.25 6.25 0 1 0 12.5 0 a6.25 6.25 0 1 0 -12.5 0zM56.25 562.5 a6.25 6.25 0 1 0 12.5 0 a6.25 6.25 0 1 0 -12.5 0z" fill="rgba(219, 231, 244, 1)"></path><path d="M912.5 237.5L912.5 212.5L887.5 187.5" stroke-width="4.17" stroke="rgba(219, 231, 244, 1)"></path><path d="M906.25 237.5 a6.25 6.25 0 1 0 12.5 0 a6.25 6.25 0 1 0 -12.5 0zM881.25 187.5 a6.25 6.25 0 1 0 12.5 0 a6.25 6.25 0 1 0 -12.5 0z" fill="rgba(219, 231, 244, 1)"></path><path d="M1337.5 512.5L1337.5 562.5" stroke-width="4.17" stroke="rgba(219, 231, 244, 1)"></path><path d="M1331.25 512.5 a6.25 6.25 0 1 0 12.5 0 a6.25 6.25 0 1 0 -12.5 0zM1331.25 562.5 a6.25 6.25 0 1 0 12.5 0 a6.25 6.25 0 1 0 -12.5 0z" fill="rgba(219, 231, 244, 1)"></path><path d="M137.5 412.5L87.5 412.5L62.5 437.5L62.5 537.5" stroke-width="4.17" stroke="rgba(219, 231, 244, 1)"></path><path d="M131.25 412.5 a6.25 6.25 0 1 0 12.5 0 a6.25 6.25 0 1 0 -12.5 0zM56.25 537.5 a6.25 6.25 0 1 0 12.5 0 a6.25 6.25 0 1 0 -12.5 0z" fill="rgba(219, 231, 244, 1)"></path><path d="M162.5 412.5L137.5 387.5L137.5 362.5L162.5 337.5L187.5 337.5" stroke-width="4.17" stroke="rgba(219, 231, 244, 1)"></path><path d="M156.25 412.5 a6.25 6.25 0 1 0 12.5 0 a6.25 6.25 0 1 0 -12.5 0zM181.25 337.5 a6.25 6.25 0 1 0 12.5 0 a6.25 6.25 0 1 0 -12.5 0z" fill="rgba(219, 231, 244, 1)"></path><path d="M1362.5 462.5L1337.5 437.5L1337.5 387.5" stroke-width="4.17" stroke="rgba(219, 231, 244, 1)"></path><path d="M1356.25 462.5 a6.25 6.25 0 1 0 12.5 0 a6.25 6.25 0 1 0 -12.5 0zM1331.25 387.5 a6.25 6.25 0 1 0 12.5 0 a6.25 6.25 0 1 0 -12.5 0z" fill="rgba(219, 231, 244, 1)"></path><path d="M737.5 62.5L762.5 37.5L762.5 12.5" stroke-width="4.17" stroke="rgba(219, 231, 244, 1)"></path><path d="M731.25 62.5 a6.25 6.25 0 1 0 12.5 0 a6.25 6.25 0 1 0 -12.5 0zM756.25 12.5 a6.25 6.25 0 1 0 12.5 0 a6.25 6.25 0 1 0 -12.5 0z" fill="rgba(219, 231, 244, 1)"></path><path d="M662.5 187.5L737.5 187.5" stroke-width="4.17" stroke="rgba(219, 231, 244, 1)"></path><path d="M656.25 187.5 a6.25 6.25 0 1 0 12.5 0 a6.25 6.25 0 1 0 -12.5 0zM731.25 187.5 a6.25 6.25 0 1 0 12.5 0 a6.25 6.25 0 1 0 -12.5 0z" fill="rgba(219, 231, 244, 1)"></path><path d="M1387.5 112.5L1362.5 137.5L1162.5 137.5" stroke-width="4.17" stroke="rgba(219, 231, 244, 1)"></path><path d="M1381.25 112.5 a6.25 6.25 0 1 0 12.5 0 a6.25 6.25 0 1 0 -12.5 0zM1156.25 137.5 a6.25 6.25 0 1 0 12.5 0 a6.25 6.25 0 1 0 -12.5 0z" fill="rgba(219, 231, 244, 1)"></path><path d="M87.5 512.5L187.5 412.5" stroke-width="4.17" stroke="rgba(219, 231, 244, 1)"></path><path d="M81.25 512.5 a6.25 6.25 0 1 0 12.5 0 a6.25 6.25 0 1 0 -12.5 0zM181.25 412.5 a6.25 6.25 0 1 0 12.5 0 a6.25 6.25 0 1 0 -12.5 0z" fill="rgba(219, 231, 244, 1)"></path><path d="M912.5 262.5L887.5 237.5L887.5 212.5" stroke-width="4.17" stroke="rgba(219, 231, 244, 1)"></path><path d="M906.25 262.5 a6.25 6.25 0 1 0 12.5 0 a6.25 6.25 0 1 0 -12.5 0zM881.25 212.5 a6.25 6.25 0 1 0 12.5 0 a6.25 6.25 0 1 0 -12.5 0z" fill="rgba(219, 231, 244, 1)"></path><path d="M837.5 237.5L812.5 212.5L812.5 187.5" stroke-width="4.17" stroke="rgba(219, 231, 244, 1)"></path><path d="M831.25 237.5 a6.25 6.25 0 1 0 12.5 0 a6.25 6.25 0 1 0 -12.5 0zM806.25 187.5 a6.25 6.25 0 1 0 12.5 0 a6.25 6.25 0 1 0 -12.5 0z" fill="rgba(219, 231, 244, 1)"></path><path d="M287.5 112.5L312.5 112.5L337.5 137.5" stroke-width="4.17" stroke="rgba(219, 231, 244, 1)"></path><path d="M281.25 112.5 a6.25 6.25 0 1 0 12.5 0 a6.25 6.25 0 1 0 -12.5 0zM331.25 137.5 a6.25 6.25 0 1 0 12.5 0 a6.25 6.25 0 1 0 -12.5 0z" fill="rgba(219, 231, 244, 1)"></path><path d="M387.5 87.5L412.5 112.5L412.5 137.5" stroke-width="4.17" stroke="rgba(219, 231, 244, 1)"></path><path d="M381.25 87.5 a6.25 6.25 0 1 0 12.5 0 a6.25 6.25 0 1 0 -12.5 0zM406.25 137.5 a6.25 6.25 0 1 0 12.5 0 a6.25 6.25 0 1 0 -12.5 0z" fill="rgba(219, 231, 244, 1)"></path><path d="M612.5 337.5L662.5 337.5" stroke-width="4.17" stroke="rgba(219, 231, 244, 1)"></path><path d="M606.25 337.5 a6.25 6.25 0 1 0 12.5 0 a6.25 6.25 0 1 0 -12.5 0zM656.25 337.5 a6.25 6.25 0 1 0 12.5 0 a6.25 6.25 0 1 0 -12.5 0z" fill="rgba(219, 231, 244, 1)"></path><path d="M387.5 337.5L437.5 337.5" stroke-width="4.17" stroke="rgba(219, 231, 244, 1)"></path><path d="M381.25 337.5 a6.25 6.25 0 1 0 12.5 0 a6.25 6.25 0 1 0 -12.5 0zM431.25 337.5 a6.25 6.25 0 1 0 12.5 0 a6.25 6.25 0 1 0 -12.5 0z" fill="rgba(219, 231, 244, 1)"></path><path d="M1362.5 187.5L1412.5 137.5" stroke-width="4.17" stroke="rgba(219, 231, 244, 1)"></path><path d="M1356.25 187.5 a6.25 6.25 0 1 0 12.5 0 a6.25 6.25 0 1 0 -12.5 0zM1406.25 137.5 a6.25 6.25 0 1 0 12.5 0 a6.25 6.25 0 1 0 -12.5 0z" fill="rgba(219, 231, 244, 1)"></path><path d="M962.5 112.5L987.5 112.5L1012.5 137.5L1012.5 162.5" stroke-width="4.17" stroke="rgba(219, 231, 244, 1)"></path><path d="M956.25 112.5 a6.25 6.25 0 1 0 12.5 0 a6.25 6.25 0 1 0 -12.5 0zM1006.25 162.5 a6.25 6.25 0 1 0 12.5 0 a6.25 6.25 0 1 0 -12.5 0z" fill="rgba(219, 231, 244, 1)"></path><path d="M837.5 287.5L837.5 262.5L787.5 212.5" stroke-width="4.17" stroke="rgba(219, 231, 244, 1)"></path><path d="M831.25 287.5 a6.25 6.25 0 1 0 12.5 0 a6.25 6.25 0 1 0 -12.5 0zM781.25 212.5 a6.25 6.25 0 1 0 12.5 0 a6.25 6.25 0 1 0 -12.5 0z" fill="rgba(219, 231, 244, 1)"></path><path d="M762.5 262.5L812.5 262.5" stroke-width="4.17" stroke="rgba(219, 231, 244, 1)"></path><path d="M756.25 262.5 a6.25 6.25 0 1 0 12.5 0 a6.25 6.25 0 1 0 -12.5 0zM806.25 262.5 a6.25 6.25 0 1 0 12.5 0 a6.25 6.25 0 1 0 -12.5 0z" fill="rgba(219, 231, 244, 1)"></path><path d="M1362.5 437.5L1387.5 412.5L1387.5 337.5" stroke-width="4.17" stroke="rgba(219, 231, 244, 1)"></path><path d="M1356.25 437.5 a6.25 6.25 0 1 0 12.5 0 a6.25 6.25 0 1 0 -12.5 0zM1381.25 337.5 a6.25 6.25 0 1 0 12.5 0 a6.25 6.25 0 1 0 -12.5 0z" fill="rgba(219, 231, 244, 1)"></path><path d="M562.5 437.5L587.5 412.5L612.5 412.5" stroke-width="4.17" stroke="rgba(219, 231, 244, 1)"></path><path d="M556.25 437.5 a6.25 6.25 0 1 0 12.5 0 a6.25 6.25 0 1 0 -12.5 0zM606.25 412.5 a6.25 6.25 0 1 0 12.5 0 a6.25 6.25 0 1 0 -12.5 0z" fill="rgba(219, 231, 244, 1)"></path><path d="M612.5 462.5L612.5 512.5" stroke-width="4.17" stroke="rgba(219, 231, 244, 1)"></path><path d="M606.25 462.5 a6.25 6.25 0 1 0 12.5 0 a6.25 6.25 0 1 0 -12.5 0zM606.25 512.5 a6.25 6.25 0 1 0 12.5 0 a6.25 6.25 0 1 0 -12.5 0z" fill="rgba(219, 231, 244, 1)"></path><path d="M87.5 487.5L137.5 437.5" stroke-width="4.17" stroke="rgba(219, 231, 244, 1)"></path><path d="M81.25 487.5 a6.25 6.25 0 1 0 12.5 0 a6.25 6.25 0 1 0 -12.5 0zM131.25 437.5 a6.25 6.25 0 1 0 12.5 0 a6.25 6.25 0 1 0 -12.5 0z" fill="rgba(219, 231, 244, 1)"></path><path d="M187.5 112.5L162.5 87.5L137.5 87.5" stroke-width="4.17" stroke="rgba(219, 231, 244, 1)"></path><path d="M181.25 112.5 a6.25 6.25 0 1 0 12.5 0 a6.25 6.25 0 1 0 -12.5 0zM131.25 87.5 a6.25 6.25 0 1 0 12.5 0 a6.25 6.25 0 1 0 -12.5 0z" fill="rgba(219, 231, 244, 1)"></path><path d="M1237.5 562.5L1237.5 512.5" stroke-width="4.17" stroke="rgba(219, 231, 244, 1)"></path><path d="M1231.25 562.5 a6.25 6.25 0 1 0 12.5 0 a6.25 6.25 0 1 0 -12.5 0zM1231.25 512.5 a6.25 6.25 0 1 0 12.5 0 a6.25 6.25 0 1 0 -12.5 0z" fill="rgba(219, 231, 244, 1)"></path><path d="M287.5 62.5L262.5 87.5L262.5 137.5" stroke-width="4.17" stroke="rgba(219, 231, 244, 1)"></path><path d="M281.25 62.5 a6.25 6.25 0 1 0 12.5 0 a6.25 6.25 0 1 0 -12.5 0zM256.25 137.5 a6.25 6.25 0 1 0 12.5 0 a6.25 6.25 0 1 0 -12.5 0z" fill="rgba(219, 231, 244, 1)"></path><path d="M562.5 312.5L562.5 162.5L512.5 112.5" stroke-width="4.17" stroke="rgba(219, 231, 244, 1)"></path><path d="M556.25 312.5 a6.25 6.25 0 1 0 12.5 0 a6.25 6.25 0 1 0 -12.5 0zM506.25 112.5 a6.25 6.25 0 1 0 12.5 0 a6.25 6.25 0 1 0 -12.5 0z" fill="rgba(219, 231, 244, 1)"></path><path d="M1037.5 337.5L1062.5 362.5L1062.5 387.5" stroke-width="4.17" stroke="rgba(219, 231, 244, 1)"></path><path d="M1031.25 337.5 a6.25 6.25 0 1 0 12.5 0 a6.25 6.25 0 1 0 -12.5 0zM1056.25 387.5 a6.25 6.25 0 1 0 12.5 0 a6.25 6.25 0 1 0 -12.5 0z" fill="rgba(219, 231, 244, 1)"></path><path d="M487.5 537.5L562.5 537.5" stroke-width="4.17" stroke="rgba(219, 231, 244, 1)"></path><path d="M481.25 537.5 a6.25 6.25 0 1 0 12.5 0 a6.25 6.25 0 1 0 -12.5 0zM556.25 537.5 a6.25 6.25 0 1 0 12.5 0 a6.25 6.25 0 1 0 -12.5 0z" fill="rgba(219, 231, 244, 1)"></path><path d="M537.5 437.5L537.5 387.5" stroke-width="4.17" stroke="rgba(219, 231, 244, 1)"></path><path d="M531.25 437.5 a6.25 6.25 0 1 0 12.5 0 a6.25 6.25 0 1 0 -12.5 0zM531.25 387.5 a6.25 6.25 0 1 0 12.5 0 a6.25 6.25 0 1 0 -12.5 0z" fill="rgba(219, 231, 244, 1)"></path><path d="M387.5 137.5L387.5 112.5L362.5 87.5L362.5 62.5" stroke-width="4.17" stroke="rgba(219, 231, 244, 1)"></path><path d="M381.25 137.5 a6.25 6.25 0 1 0 12.5 0 a6.25 6.25 0 1 0 -12.5 0zM356.25 62.5 a6.25 6.25 0 1 0 12.5 0 a6.25 6.25 0 1 0 -12.5 0z" fill="rgba(219, 231, 244, 1)"></path><path d="M187.5 562.5L112.5 562.5" stroke-width="4.17" stroke="rgba(219, 231, 244, 1)"></path><path d="M181.25 562.5 a6.25 6.25 0 1 0 12.5 0 a6.25 6.25 0 1 0 -12.5 0zM106.25 562.5 a6.25 6.25 0 1 0 12.5 0 a6.25 6.25 0 1 0 -12.5 0z" fill="rgba(219, 231, 244, 1)"></path><path d="M1212.5 562.5L1212.5 512.5" stroke-width="4.17" stroke="rgba(219, 231, 244, 1)"></path><path d="M1206.25 562.5 a6.25 6.25 0 1 0 12.5 0 a6.25 6.25 0 1 0 -12.5 0zM1206.25 512.5 a6.25 6.25 0 1 0 12.5 0 a6.25 6.25 0 1 0 -12.5 0z" fill="rgba(219, 231, 244, 1)"></path><path d="M537.5 187.5L537.5 237.5L487.5 287.5L487.5 312.5" stroke-width="4.17" stroke="rgba(219, 231, 244, 1)"></path><path d="M531.25 187.5 a6.25 6.25 0 1 0 12.5 0 a6.25 6.25 0 1 0 -12.5 0zM481.25 312.5 a6.25 6.25 0 1 0 12.5 0 a6.25 6.25 0 1 0 -12.5 0z" fill="rgba(219, 231, 244, 1)"></path><path d="M262.5 337.5L312.5 387.5L337.5 387.5" stroke-width="4.17" stroke="rgba(219, 231, 244, 1)"></path><path d="M256.25 337.5 a6.25 6.25 0 1 0 12.5 0 a6.25 6.25 0 1 0 -12.5 0zM331.25 387.5 a6.25 6.25 0 1 0 12.5 0 a6.25 6.25 0 1 0 -12.5 0z" fill="rgba(219, 231, 244, 1)"></path><path d="M287.5 437.5L287.5 487.5" stroke-width="4.17" stroke="rgba(219, 231, 244, 1)"></path><path d="M281.25 437.5 a6.25 6.25 0 1 0 12.5 0 a6.25 6.25 0 1 0 -12.5 0zM281.25 487.5 a6.25 6.25 0 1 0 12.5 0 a6.25 6.25 0 1 0 -12.5 0z" fill="rgba(219, 231, 244, 1)"></path><path d="M812.5 562.5L762.5 562.5" stroke-width="4.17" stroke="rgba(219, 231, 244, 1)"></path><path d="M806.25 562.5 a6.25 6.25 0 1 0 12.5 0 a6.25 6.25 0 1 0 -12.5 0zM756.25 562.5 a6.25 6.25 0 1 0 12.5 0 a6.25 6.25 0 1 0 -12.5 0z" fill="rgba(219, 231, 244, 1)"></path><path d="M1212.5 162.5L1162.5 162.5" stroke-width="4.17" stroke="rgba(219, 231, 244, 1)"></path><path d="M1206.25 162.5 a6.25 6.25 0 1 0 12.5 0 a6.25 6.25 0 1 0 -12.5 0zM1156.25 162.5 a6.25 6.25 0 1 0 12.5 0 a6.25 6.25 0 1 0 -12.5 0z" fill="rgba(219, 231, 244, 1)"></path><path d="M512.5 137.5L512.5 187.5L487.5 212.5" stroke-width="4.17" stroke="rgba(219, 231, 244, 1)"></path><path d="M506.25 137.5 a6.25 6.25 0 1 0 12.5 0 a6.25 6.25 0 1 0 -12.5 0zM481.25 212.5 a6.25 6.25 0 1 0 12.5 0 a6.25 6.25 0 1 0 -12.5 0z" fill="rgba(219, 231, 244, 1)"></path><path d="M37.5 112.5L12.5 137.5L12.5 162.5" stroke-width="4.17" stroke="rgba(219, 231, 244, 1)"></path><path d="M31.25 112.5 a6.25 6.25 0 1 0 12.5 0 a6.25 6.25 0 1 0 -12.5 0zM6.25 162.5 a6.25 6.25 0 1 0 12.5 0 a6.25 6.25 0 1 0 -12.5 0z" fill="rgba(219, 231, 244, 1)"></path><path d="M1237.5 12.5L1337.5 12.5" stroke-width="4.17" stroke="rgba(219, 231, 244, 1)"></path><path d="M1231.25 12.5 a6.25 6.25 0 1 0 12.5 0 a6.25 6.25 0 1 0 -12.5 0zM1331.25 12.5 a6.25 6.25 0 1 0 12.5 0 a6.25 6.25 0 1 0 -12.5 0z" fill="rgba(219, 231, 244, 1)"></path><path d="M587.5 487.5L587.5 462.5L612.5 437.5" stroke-width="4.17" stroke="rgba(219, 231, 244, 1)"></path><path d="M581.25 487.5 a6.25 6.25 0 1 0 12.5 0 a6.25 6.25 0 1 0 -12.5 0zM606.25 437.5 a6.25 6.25 0 1 0 12.5 0 a6.25 6.25 0 1 0 -12.5 0z" fill="rgba(219, 231, 244, 1)"></path><path d="M862.5 437.5L837.5 412.5L837.5 387.5" stroke-width="4.17" stroke="rgba(219, 231, 244, 1)"></path><path d="M856.25 437.5 a6.25 6.25 0 1 0 12.5 0 a6.25 6.25 0 1 0 -12.5 0zM831.25 387.5 a6.25 6.25 0 1 0 12.5 0 a6.25 6.25 0 1 0 -12.5 0z" fill="rgba(219, 231, 244, 1)"></path><path d="M412.5 312.5L387.5 287.5L337.5 287.5" stroke-width="4.17" stroke="rgba(219, 231, 244, 1)"></path><path d="M406.25 312.5 a6.25 6.25 0 1 0 12.5 0 a6.25 6.25 0 1 0 -12.5 0zM331.25 287.5 a6.25 6.25 0 1 0 12.5 0 a6.25 6.25 0 1 0 -12.5 0z" fill="rgba(219, 231, 244, 1)"></path><path d="M1337.5 212.5L1412.5 212.5" stroke-width="4.17" stroke="rgba(219, 231, 244, 1)"></path><path d="M1331.25 212.5 a6.25 6.25 0 1 0 12.5 0 a6.25 6.25 0 1 0 -12.5 0zM1406.25 212.5 a6.25 6.25 0 1 0 12.5 0 a6.25 6.25 0 1 0 -12.5 0z" fill="rgba(219, 231, 244, 1)"></path><path d="M62.5 237.5L62.5 287.5" stroke-width="4.17" stroke="rgba(219, 231, 244, 1)"></path><path d="M56.25 237.5 a6.25 6.25 0 1 0 12.5 0 a6.25 6.25 0 1 0 -12.5 0zM56.25 287.5 a6.25 6.25 0 1 0 12.5 0 a6.25 6.25 0 1 0 -12.5 0z" fill="rgba(219, 231, 244, 1)"></path></g></g><defs><mask id="SvgjsMask5198"><rect width="1440" height="560" fill="#ffffff"></rect></mask><linearGradient x1="84.72%" y1="139.29%" x2="15.28%" y2="-39.29%" gradientUnits="userSpaceOnUse" id="SvgjsLinearGradient5199"><stop stop-color="rgba(71, 14, 14, 0.55)" offset="0"></stop><stop stop-color="rgba(158, 0, 0, 0)" offset="1"></stop></linearGradient><mask id="SvgjsMask5200"><rect width="1440" height="560" fill="white"></rect><path d="M584.37 337.5 a3.13 3.13 0 1 0 6.26 0 a3.13 3.13 0 1 0 -6.26 0zM284.37 12.5 a3.13 3.13 0 1 0 6.26 0 a3.13 3.13 0 1 0 -6.26 0z" fill="black"></path><path d="M1109.37 262.5 a3.13 3.13 0 1 0 6.26 0 a3.13 3.13 0 1 0 -6.26 0zM1084.37 12.5 a3.13 3.13 0 1 0 6.26 0 a3.13 3.13 0 1 0 -6.26 0z" fill="black"></path><path d="M809.37 537.5 a3.13 3.13 0 1 0 6.26 0 a3.13 3.13 0 1 0 -6.26 0zM1184.37 562.5 a3.13 3.13 0 1 0 6.26 0 a3.13 3.13 0 1 0 -6.26 0z" fill="black"></path><path d="M684.37 337.5 a3.13 3.13 0 1 0 6.26 0 a3.13 3.13 0 1 0 -6.26 0zM609.37 12.5 a3.13 3.13 0 1 0 6.26 0 a3.13 3.13 0 1 0 -6.26 0z" fill="black"></path><path d="M409.37 437.5 a3.13 3.13 0 1 0 6.26 0 a3.13 3.13 0 1 0 -6.26 0zM9.37 12.5 a3.13 3.13 0 1 0 6.26 0 a3.13 3.13 0 1 0 -6.26 0z" fill="black"></path><path d="M459.37 512.5 a3.13 3.13 0 1 0 6.26 0 a3.13 3.13 0 1 0 -6.26 0zM434.37 37.5 a3.13 3.13 0 1 0 6.26 0 a3.13 3.13 0 1 0 -6.26 0z" fill="black"></path><path d="M834.37 537.5 a3.13 3.13 0 1 0 6.26 0 a3.13 3.13 0 1 0 -6.26 0zM959.37 187.5 a3.13 3.13 0 1 0 6.26 0 a3.13 3.13 0 1 0 -6.26 0z" fill="black"></path><path d="M1059.37 512.5 a3.13 3.13 0 1 0 6.26 0 a3.13 3.13 0 1 0 -6.26 0zM1159.37 462.5 a3.13 3.13 0 1 0 6.26 0 a3.13 3.13 0 1 0 -6.26 0z" fill="black"></path><path d="M1209.37 237.5 a3.13 3.13 0 1 0 6.26 0 a3.13 3.13 0 1 0 -6.26 0zM1434.37 237.5 a3.13 3.13 0 1 0 6.26 0 a3.13 3.13 0 1 0 -6.26 0z" fill="black"></path><path d="M1309.37 487.5 a3.13 3.13 0 1 0 6.26 0 a3.13 3.13 0 1 0 -6.26 0zM1434.37 262.5 a3.13 3.13 0 1 0 6.26 0 a3.13 3.13 0 1 0 -6.26 0z" fill="black"></path><path d="M784.37 437.5 a3.13 3.13 0 1 0 6.26 0 a3.13 3.13 0 1 0 -6.26 0zM959.37 312.5 a3.13 3.13 0 1 0 6.26 0 a3.13 3.13 0 1 0 -6.26 0z" fill="black"></path><path d="M1084.37 562.5 a3.13 3.13 0 1 0 6.26 0 a3.13 3.13 0 1 0 -6.26 0zM1034.37 512.5 a3.13 3.13 0 1 0 6.26 0 a3.13 3.13 0 1 0 -6.26 0z" fill="black"></path><path d="M209.37 537.5 a3.13 3.13 0 1 0 6.26 0 a3.13 3.13 0 1 0 -6.26 0zM9.37 62.5 a3.13 3.13 0 1 0 6.26 0 a3.13 3.13 0 1 0 -6.26 0z" fill="black"></path><path d="M1409.37 112.5 a3.13 3.13 0 1 0 6.26 0 a3.13 3.13 0 1 0 -6.26 0zM1259.37 462.5 a3.13 3.13 0 1 0 6.26 0 a3.13 3.13 0 1 0 -6.26 0z" fill="black"></path><path d="M84.37 62.5 a3.13 3.13 0 1 0 6.26 0 a3.13 3.13 0 1 0 -6.26 0zM34.37 12.5 a3.13 3.13 0 1 0 6.26 0 a3.13 3.13 0 1 0 -6.26 0z" fill="black"></path><path d="M659.37 87.5 a3.13 3.13 0 1 0 6.26 0 a3.13 3.13 0 1 0 -6.26 0zM1059.37 212.5 a3.13 3.13 0 1 0 6.26 0 a3.13 3.13 0 1 0 -6.26 0z" fill="black"></path><path d="M759.37 462.5 a3.13 3.13 0 1 0 6.26 0 a3.13 3.13 0 1 0 -6.26 0zM284.37 562.5 a3.13 3.13 0 1 0 6.26 0 a3.13 3.13 0 1 0 -6.26 0z" fill="black"></path><path d="M1034.37 87.5 a3.13 3.13 0 1 0 6.26 0 a3.13 3.13 0 1 0 -6.26 0zM934.37 12.5 a3.13 3.13 0 1 0 6.26 0 a3.13 3.13 0 1 0 -6.26 0z" fill="black"></path><path d="M1234.37 262.5 a3.13 3.13 0 1 0 6.26 0 a3.13 3.13 0 1 0 -6.26 0zM1284.37 562.5 a3.13 3.13 0 1 0 6.26 0 a3.13 3.13 0 1 0 -6.26 0z" fill="black"></path><path d="M334.37 87.5 a3.13 3.13 0 1 0 6.26 0 a3.13 3.13 0 1 0 -6.26 0zM334.37 37.5 a3.13 3.13 0 1 0 6.26 0 a3.13 3.13 0 1 0 -6.26 0z" fill="black"></path><path d="M259.37 412.5 a3.13 3.13 0 1 0 6.26 0 a3.13 3.13 0 1 0 -6.26 0zM434.37 537.5 a3.13 3.13 0 1 0 6.26 0 a3.13 3.13 0 1 0 -6.26 0z" fill="black"></path><path d="M1134.37 362.5 a3.13 3.13 0 1 0 6.26 0 a3.13 3.13 0 1 0 -6.26 0zM1259.37 562.5 a3.13 3.13 0 1 0 6.26 0 a3.13 3.13 0 1 0 -6.26 0z" fill="black"></path><path d="M1334.37 162.5 a3.13 3.13 0 1 0 6.26 0 a3.13 3.13 0 1 0 -6.26 0zM1109.37 12.5 a3.13 3.13 0 1 0 6.26 0 a3.13 3.13 0 1 0 -6.26 0z" fill="black"></path><path d="M134.37 312.5 a3.13 3.13 0 1 0 6.26 0 a3.13 3.13 0 1 0 -6.26 0zM9.37 562.5 a3.13 3.13 0 1 0 6.26 0 a3.13 3.13 0 1 0 -6.26 0z" fill="black"></path><path d="M859.37 412.5 a3.13 3.13 0 1 0 6.26 0 a3.13 3.13 0 1 0 -6.26 0zM759.37 387.5 a3.13 3.13 0 1 0 6.26 0 a3.13 3.13 0 1 0 -6.26 0z" fill="black"></path><path d="M734.37 312.5 a3.13 3.13 0 1 0 6.26 0 a3.13 3.13 0 1 0 -6.26 0zM959.37 87.5 a3.13 3.13 0 1 0 6.26 0 a3.13 3.13 0 1 0 -6.26 0z" fill="black"></path><path d="M1409.37 462.5 a3.13 3.13 0 1 0 6.26 0 a3.13 3.13 0 1 0 -6.26 0zM1409.37 287.5 a3.13 3.13 0 1 0 6.26 0 a3.13 3.13 0 1 0 -6.26 0z" fill="black"></path><path d="M684.37 362.5 a3.13 3.13 0 1 0 6.26 0 a3.13 3.13 0 1 0 -6.26 0zM759.37 412.5 a3.13 3.13 0 1 0 6.26 0 a3.13 3.13 0 1 0 -6.26 0z" fill="black"></path><path d="M959.37 412.5 a3.13 3.13 0 1 0 6.26 0 a3.13 3.13 0 1 0 -6.26 0zM859.37 462.5 a3.13 3.13 0 1 0 6.26 0 a3.13 3.13 0 1 0 -6.26 0z" fill="black"></path><path d="M534.37 262.5 a3.13 3.13 0 1 0 6.26 0 a3.13 3.13 0 1 0 -6.26 0zM759.37 437.5 a3.13 3.13 0 1 0 6.26 0 a3.13 3.13 0 1 0 -6.26 0z" fill="black"></path><path d="M1434.37 112.5 a3.13 3.13 0 1 0 6.26 0 a3.13 3.13 0 1 0 -6.26 0zM1434.37 212.5 a3.13 3.13 0 1 0 6.26 0 a3.13 3.13 0 1 0 -6.26 0z" fill="black"></path><path d="M659.37 362.5 a3.13 3.13 0 1 0 6.26 0 a3.13 3.13 0 1 0 -6.26 0zM509.37 362.5 a3.13 3.13 0 1 0 6.26 0 a3.13 3.13 0 1 0 -6.26 0z" fill="black"></path><path d="M59.37 137.5 a3.13 3.13 0 1 0 6.26 0 a3.13 3.13 0 1 0 -6.26 0zM9.37 412.5 a3.13 3.13 0 1 0 6.26 0 a3.13 3.13 0 1 0 -6.26 0z" fill="black"></path><path d="M809.37 137.5 a3.13 3.13 0 1 0 6.26 0 a3.13 3.13 0 1 0 -6.26 0zM734.37 387.5 a3.13 3.13 0 1 0 6.26 0 a3.13 3.13 0 1 0 -6.26 0z" fill="black"></path><path d="M1409.37 87.5 a3.13 3.13 0 1 0 6.26 0 a3.13 3.13 0 1 0 -6.26 0zM1134.37 87.5 a3.13 3.13 0 1 0 6.26 0 a3.13 3.13 0 1 0 -6.26 0z" fill="black"></path><path d="M1134.37 112.5 a3.13 3.13 0 1 0 6.26 0 a3.13 3.13 0 1 0 -6.26 0zM1134.37 162.5 a3.13 3.13 0 1 0 6.26 0 a3.13 3.13 0 1 0 -6.26 0z" fill="black"></path><path d="M409.37 387.5 a3.13 3.13 0 1 0 6.26 0 a3.13 3.13 0 1 0 -6.26 0zM434.37 462.5 a3.13 3.13 0 1 0 6.26 0 a3.13 3.13 0 1 0 -6.26 0z" fill="black"></path><path d="M184.37 312.5 a3.13 3.13 0 1 0 6.26 0 a3.13 3.13 0 1 0 -6.26 0zM34.37 387.5 a3.13 3.13 0 1 0 6.26 0 a3.13 3.13 0 1 0 -6.26 0z" fill="black"></path><path d="M659.37 487.5 a3.13 3.13 0 1 0 6.26 0 a3.13 3.13 0 1 0 -6.26 0zM684.37 387.5 a3.13 3.13 0 1 0 6.26 0 a3.13 3.13 0 1 0 -6.26 0z" fill="black"></path><path d="M1134.37 487.5 a3.13 3.13 0 1 0 6.26 0 a3.13 3.13 0 1 0 -6.26 0zM1159.37 562.5 a3.13 3.13 0 1 0 6.26 0 a3.13 3.13 0 1 0 -6.26 0z" fill="black"></path><path d="M509.37 62.5 a3.13 3.13 0 1 0 6.26 0 a3.13 3.13 0 1 0 -6.26 0zM584.37 137.5 a3.13 3.13 0 1 0 6.26 0 a3.13 3.13 0 1 0 -6.26 0z" fill="black"></path><path d="M284.37 137.5 a3.13 3.13 0 1 0 6.26 0 a3.13 3.13 0 1 0 -6.26 0zM209.37 212.5 a3.13 3.13 0 1 0 6.26 0 a3.13 3.13 0 1 0 -6.26 0z" fill="black"></path><path d="M59.37 187.5 a3.13 3.13 0 1 0 6.26 0 a3.13 3.13 0 1 0 -6.26 0zM59.37 362.5 a3.13 3.13 0 1 0 6.26 0 a3.13 3.13 0 1 0 -6.26 0z" fill="black"></path><path d="M984.37 12.5 a3.13 3.13 0 1 0 6.26 0 a3.13 3.13 0 1 0 -6.26 0zM1059.37 137.5 a3.13 3.13 0 1 0 6.26 0 a3.13 3.13 0 1 0 -6.26 0z" fill="black"></path><path d="M459.37 162.5 a3.13 3.13 0 1 0 6.26 0 a3.13 3.13 0 1 0 -6.26 0zM234.37 237.5 a3.13 3.13 0 1 0 6.26 0 a3.13 3.13 0 1 0 -6.26 0z" fill="black"></path><path d="M384.37 37.5 a3.13 3.13 0 1 0 6.26 0 a3.13 3.13 0 1 0 -6.26 0zM284.37 162.5 a3.13 3.13 0 1 0 6.26 0 a3.13 3.13 0 1 0 -6.26 0z" fill="black"></path><path d="M934.37 437.5 a3.13 3.13 0 1 0 6.26 0 a3.13 3.13 0 1 0 -6.26 0zM909.37 387.5 a3.13 3.13 0 1 0 6.26 0 a3.13 3.13 0 1 0 -6.26 0z" fill="black"></path><path d="M1334.37 287.5 a3.13 3.13 0 1 0 6.26 0 a3.13 3.13 0 1 0 -6.26 0zM1234.37 387.5 a3.13 3.13 0 1 0 6.26 0 a3.13 3.13 0 1 0 -6.26 0z" fill="black"></path><path d="M859.37 162.5 a3.13 3.13 0 1 0 6.26 0 a3.13 3.13 0 1 0 -6.26 0zM909.37 62.5 a3.13 3.13 0 1 0 6.26 0 a3.13 3.13 0 1 0 -6.26 0z" fill="black"></path><path d="M259.37 487.5 a3.13 3.13 0 1 0 6.26 0 a3.13 3.13 0 1 0 -6.26 0zM234.37 562.5 a3.13 3.13 0 1 0 6.26 0 a3.13 3.13 0 1 0 -6.26 0z" fill="black"></path><path d="M784.37 362.5 a3.13 3.13 0 1 0 6.26 0 a3.13 3.13 0 1 0 -6.26 0zM734.37 362.5 a3.13 3.13 0 1 0 6.26 0 a3.13 3.13 0 1 0 -6.26 0z" fill="black"></path><path d="M959.37 137.5 a3.13 3.13 0 1 0 6.26 0 a3.13 3.13 0 1 0 -6.26 0zM1084.37 287.5 a3.13 3.13 0 1 0 6.26 0 a3.13 3.13 0 1 0 -6.26 0z" fill="black"></path><path d="M434.37 137.5 a3.13 3.13 0 1 0 6.26 0 a3.13 3.13 0 1 0 -6.26 0zM359.37 37.5 a3.13 3.13 0 1 0 6.26 0 a3.13 3.13 0 1 0 -6.26 0z" fill="black"></path><path d="M1184.37 12.5 a3.13 3.13 0 1 0 6.26 0 a3.13 3.13 0 1 0 -6.26 0zM1184.37 62.5 a3.13 3.13 0 1 0 6.26 0 a3.13 3.13 0 1 0 -6.26 0z" fill="black"></path><path d="M759.37 162.5 a3.13 3.13 0 1 0 6.26 0 a3.13 3.13 0 1 0 -6.26 0zM634.37 162.5 a3.13 3.13 0 1 0 6.26 0 a3.13 3.13 0 1 0 -6.26 0z" fill="black"></path><path d="M184.37 87.5 a3.13 3.13 0 1 0 6.26 0 a3.13 3.13 0 1 0 -6.26 0zM84.37 87.5 a3.13 3.13 0 1 0 6.26 0 a3.13 3.13 0 1 0 -6.26 0z" fill="black"></path><path d="M684.37 562.5 a3.13 3.13 0 1 0 6.26 0 a3.13 3.13 0 1 0 -6.26 0zM784.37 462.5 a3.13 3.13 0 1 0 6.26 0 a3.13 3.13 0 1 0 -6.26 0z" fill="black"></path><path d="M1384.37 462.5 a3.13 3.13 0 1 0 6.26 0 a3.13 3.13 0 1 0 -6.26 0zM1384.37 562.5 a3.13 3.13 0 1 0 6.26 0 a3.13 3.13 0 1 0 -6.26 0z" fill="black"></path><path d="M934.37 287.5 a3.13 3.13 0 1 0 6.26 0 a3.13 3.13 0 1 0 -6.26 0zM859.37 287.5 a3.13 3.13 0 1 0 6.26 0 a3.13 3.13 0 1 0 -6.26 0z" fill="black"></path><path d="M1359.37 62.5 a3.13 3.13 0 1 0 6.26 0 a3.13 3.13 0 1 0 -6.26 0zM1434.37 62.5 a3.13 3.13 0 1 0 6.26 0 a3.13 3.13 0 1 0 -6.26 0z" fill="black"></path><path d="M1059.37 62.5 a3.13 3.13 0 1 0 6.26 0 a3.13 3.13 0 1 0 -6.26 0zM1009.37 12.5 a3.13 3.13 0 1 0 6.26 0 a3.13 3.13 0 1 0 -6.26 0z" fill="black"></path><path d="M234.37 37.5 a3.13 3.13 0 1 0 6.26 0 a3.13 3.13 0 1 0 -6.26 0zM59.37 12.5 a3.13 3.13 0 1 0 6.26 0 a3.13 3.13 0 1 0 -6.26 0z" fill="black"></path><path d="M234.37 112.5 a3.13 3.13 0 1 0 6.26 0 a3.13 3.13 0 1 0 -6.26 0zM59.37 37.5 a3.13 3.13 0 1 0 6.26 0 a3.13 3.13 0 1 0 -6.26 0z" fill="black"></path><path d="M659.37 312.5 a3.13 3.13 0 1 0 6.26 0 a3.13 3.13 0 1 0 -6.26 0zM609.37 212.5 a3.13 3.13 0 1 0 6.26 0 a3.13 3.13 0 1 0 -6.26 0z" fill="black"></path><path d="M359.37 462.5 a3.13 3.13 0 1 0 6.26 0 a3.13 3.13 0 1 0 -6.26 0zM409.37 537.5 a3.13 3.13 0 1 0 6.26 0 a3.13 3.13 0 1 0 -6.26 0z" fill="black"></path><path d="M434.37 212.5 a3.13 3.13 0 1 0 6.26 0 a3.13 3.13 0 1 0 -6.26 0zM259.37 262.5 a3.13 3.13 0 1 0 6.26 0 a3.13 3.13 0 1 0 -6.26 0z" fill="black"></path><path d="M34.37 462.5 a3.13 3.13 0 1 0 6.26 0 a3.13 3.13 0 1 0 -6.26 0zM109.37 212.5 a3.13 3.13 0 1 0 6.26 0 a3.13 3.13 0 1 0 -6.26 0z" fill="black"></path><path d="M1259.37 112.5 a3.13 3.13 0 1 0 6.26 0 a3.13 3.13 0 1 0 -6.26 0zM1159.37 112.5 a3.13 3.13 0 1 0 6.26 0 a3.13 3.13 0 1 0 -6.26 0z" fill="black"></path><path d="M309.37 437.5 a3.13 3.13 0 1 0 6.26 0 a3.13 3.13 0 1 0 -6.26 0zM309.37 537.5 a3.13 3.13 0 1 0 6.26 0 a3.13 3.13 0 1 0 -6.26 0z" fill="black"></path><path d="M709.37 62.5 a3.13 3.13 0 1 0 6.26 0 a3.13 3.13 0 1 0 -6.26 0zM784.37 12.5 a3.13 3.13 0 1 0 6.26 0 a3.13 3.13 0 1 0 -6.26 0z" fill="black"></path><path d="M1259.37 287.5 a3.13 3.13 0 1 0 6.26 0 a3.13 3.13 0 1 0 -6.26 0zM1384.37 262.5 a3.13 3.13 0 1 0 6.26 0 a3.13 3.13 0 1 0 -6.26 0z" fill="black"></path><path d="M234.37 312.5 a3.13 3.13 0 1 0 6.26 0 a3.13 3.13 0 1 0 -6.26 0zM234.37 462.5 a3.13 3.13 0 1 0 6.26 0 a3.13 3.13 0 1 0 -6.26 0z" fill="black"></path><path d="M1359.37 12.5 a3.13 3.13 0 1 0 6.26 0 a3.13 3.13 0 1 0 -6.26 0zM1434.37 12.5 a3.13 3.13 0 1 0 6.26 0 a3.13 3.13 0 1 0 -6.26 0z" fill="black"></path><path d="M634.37 512.5 a3.13 3.13 0 1 0 6.26 0 a3.13 3.13 0 1 0 -6.26 0zM634.37 387.5 a3.13 3.13 0 1 0 6.26 0 a3.13 3.13 0 1 0 -6.26 0z" fill="black"></path><path d="M384.37 387.5 a3.13 3.13 0 1 0 6.26 0 a3.13 3.13 0 1 0 -6.26 0zM284.37 262.5 a3.13 3.13 0 1 0 6.26 0 a3.13 3.13 0 1 0 -6.26 0z" fill="black"></path><path d="M809.37 387.5 a3.13 3.13 0 1 0 6.26 0 a3.13 3.13 0 1 0 -6.26 0zM859.37 362.5 a3.13 3.13 0 1 0 6.26 0 a3.13 3.13 0 1 0 -6.26 0z" fill="black"></path><path d="M409.37 287.5 a3.13 3.13 0 1 0 6.26 0 a3.13 3.13 0 1 0 -6.26 0zM434.37 362.5 a3.13 3.13 0 1 0 6.26 0 a3.13 3.13 0 1 0 -6.26 0z" fill="black"></path><path d="M1209.37 12.5 a3.13 3.13 0 1 0 6.26 0 a3.13 3.13 0 1 0 -6.26 0zM1209.37 62.5 a3.13 3.13 0 1 0 6.26 0 a3.13 3.13 0 1 0 -6.26 0z" fill="black"></path><path d="M1209.37 362.5 a3.13 3.13 0 1 0 6.26 0 a3.13 3.13 0 1 0 -6.26 0zM1159.37 287.5 a3.13 3.13 0 1 0 6.26 0 a3.13 3.13 0 1 0 -6.26 0z" fill="black"></path><path d="M934.37 212.5 a3.13 3.13 0 1 0 6.26 0 a3.13 3.13 0 1 0 -6.26 0zM884.37 162.5 a3.13 3.13 0 1 0 6.26 0 a3.13 3.13 0 1 0 -6.26 0z" fill="black"></path><path d="M534.37 62.5 a3.13 3.13 0 1 0 6.26 0 a3.13 3.13 0 1 0 -6.26 0zM584.37 12.5 a3.13 3.13 0 1 0 6.26 0 a3.13 3.13 0 1 0 -6.26 0z" fill="black"></path><path d="M1409.37 537.5 a3.13 3.13 0 1 0 6.26 0 a3.13 3.13 0 1 0 -6.26 0zM1434.37 287.5 a3.13 3.13 0 1 0 6.26 0 a3.13 3.13 0 1 0 -6.26 0z" fill="black"></path><path d="M584.37 37.5 a3.13 3.13 0 1 0 6.26 0 a3.13 3.13 0 1 0 -6.26 0zM584.37 112.5 a3.13 3.13 0 1 0 6.26 0 a3.13 3.13 0 1 0 -6.26 0z" fill="black"></path><path d="M359.37 137.5 a3.13 3.13 0 1 0 6.26 0 a3.13 3.13 0 1 0 -6.26 0zM309.37 37.5 a3.13 3.13 0 1 0 6.26 0 a3.13 3.13 0 1 0 -6.26 0z" fill="black"></path><path d="M1334.37 487.5 a3.13 3.13 0 1 0 6.26 0 a3.13 3.13 0 1 0 -6.26 0zM1309.37 562.5 a3.13 3.13 0 1 0 6.26 0 a3.13 3.13 0 1 0 -6.26 0z" fill="black"></path><path d="M334.37 487.5 a3.13 3.13 0 1 0 6.26 0 a3.13 3.13 0 1 0 -6.26 0zM359.37 437.5 a3.13 3.13 0 1 0 6.26 0 a3.13 3.13 0 1 0 -6.26 0z" fill="black"></path><path d="M784.37 537.5 a3.13 3.13 0 1 0 6.26 0 a3.13 3.13 0 1 0 -6.26 0zM709.37 562.5 a3.13 3.13 0 1 0 6.26 0 a3.13 3.13 0 1 0 -6.26 0z" fill="black"></path><path d="M634.37 87.5 a3.13 3.13 0 1 0 6.26 0 a3.13 3.13 0 1 0 -6.26 0zM634.37 137.5 a3.13 3.13 0 1 0 6.26 0 a3.13 3.13 0 1 0 -6.26 0z" fill="black"></path><path d="M684.37 12.5 a3.13 3.13 0 1 0 6.26 0 a3.13 3.13 0 1 0 -6.26 0zM634.37 12.5 a3.13 3.13 0 1 0 6.26 0 a3.13 3.13 0 1 0 -6.26 0z" fill="black"></path><path d="M1234.37 37.5 a3.13 3.13 0 1 0 6.26 0 a3.13 3.13 0 1 0 -6.26 0zM1359.37 37.5 a3.13 3.13 0 1 0 6.26 0 a3.13 3.13 0 1 0 -6.26 0z" fill="black"></path><path d="M34.37 512.5 a3.13 3.13 0 1 0 6.26 0 a3.13 3.13 0 1 0 -6.26 0zM59.37 562.5 a3.13 3.13 0 1 0 6.26 0 a3.13 3.13 0 1 0 -6.26 0z" fill="black"></path><path d="M909.37 237.5 a3.13 3.13 0 1 0 6.26 0 a3.13 3.13 0 1 0 -6.26 0zM884.37 187.5 a3.13 3.13 0 1 0 6.26 0 a3.13 3.13 0 1 0 -6.26 0z" fill="black"></path><path d="M1334.37 512.5 a3.13 3.13 0 1 0 6.26 0 a3.13 3.13 0 1 0 -6.26 0zM1334.37 562.5 a3.13 3.13 0 1 0 6.26 0 a3.13 3.13 0 1 0 -6.26 0z" fill="black"></path><path d="M134.37 412.5 a3.13 3.13 0 1 0 6.26 0 a3.13 3.13 0 1 0 -6.26 0zM59.37 537.5 a3.13 3.13 0 1 0 6.26 0 a3.13 3.13 0 1 0 -6.26 0z" fill="black"></path><path d="M159.37 412.5 a3.13 3.13 0 1 0 6.26 0 a3.13 3.13 0 1 0 -6.26 0zM184.37 337.5 a3.13 3.13 0 1 0 6.26 0 a3.13 3.13 0 1 0 -6.26 0z" fill="black"></path><path d="M1359.37 462.5 a3.13 3.13 0 1 0 6.26 0 a3.13 3.13 0 1 0 -6.26 0zM1334.37 387.5 a3.13 3.13 0 1 0 6.26 0 a3.13 3.13 0 1 0 -6.26 0z" fill="black"></path><path d="M734.37 62.5 a3.13 3.13 0 1 0 6.26 0 a3.13 3.13 0 1 0 -6.26 0zM759.37 12.5 a3.13 3.13 0 1 0 6.26 0 a3.13 3.13 0 1 0 -6.26 0z" fill="black"></path><path d="M659.37 187.5 a3.13 3.13 0 1 0 6.26 0 a3.13 3.13 0 1 0 -6.26 0zM734.37 187.5 a3.13 3.13 0 1 0 6.26 0 a3.13 3.13 0 1 0 -6.26 0z" fill="black"></path><path d="M1384.37 112.5 a3.13 3.13 0 1 0 6.26 0 a3.13 3.13 0 1 0 -6.26 0zM1159.37 137.5 a3.13 3.13 0 1 0 6.26 0 a3.13 3.13 0 1 0 -6.26 0z" fill="black"></path><path d="M84.37 512.5 a3.13 3.13 0 1 0 6.26 0 a3.13 3.13 0 1 0 -6.26 0zM184.37 412.5 a3.13 3.13 0 1 0 6.26 0 a3.13 3.13 0 1 0 -6.26 0z" fill="black"></path><path d="M909.37 262.5 a3.13 3.13 0 1 0 6.26 0 a3.13 3.13 0 1 0 -6.26 0zM884.37 212.5 a3.13 3.13 0 1 0 6.26 0 a3.13 3.13 0 1 0 -6.26 0z" fill="black"></path><path d="M834.37 237.5 a3.13 3.13 0 1 0 6.26 0 a3.13 3.13 0 1 0 -6.26 0zM809.37 187.5 a3.13 3.13 0 1 0 6.26 0 a3.13 3.13 0 1 0 -6.26 0z" fill="black"></path><path d="M284.37 112.5 a3.13 3.13 0 1 0 6.26 0 a3.13 3.13 0 1 0 -6.26 0zM334.37 137.5 a3.13 3.13 0 1 0 6.26 0 a3.13 3.13 0 1 0 -6.26 0z" fill="black"></path><path d="M384.37 87.5 a3.13 3.13 0 1 0 6.26 0 a3.13 3.13 0 1 0 -6.26 0zM409.37 137.5 a3.13 3.13 0 1 0 6.26 0 a3.13 3.13 0 1 0 -6.26 0z" fill="black"></path><path d="M609.37 337.5 a3.13 3.13 0 1 0 6.26 0 a3.13 3.13 0 1 0 -6.26 0zM659.37 337.5 a3.13 3.13 0 1 0 6.26 0 a3.13 3.13 0 1 0 -6.26 0z" fill="black"></path><path d="M384.37 337.5 a3.13 3.13 0 1 0 6.26 0 a3.13 3.13 0 1 0 -6.26 0zM434.37 337.5 a3.13 3.13 0 1 0 6.26 0 a3.13 3.13 0 1 0 -6.26 0z" fill="black"></path><path d="M1359.37 187.5 a3.13 3.13 0 1 0 6.26 0 a3.13 3.13 0 1 0 -6.26 0zM1409.37 137.5 a3.13 3.13 0 1 0 6.26 0 a3.13 3.13 0 1 0 -6.26 0z" fill="black"></path><path d="M959.37 112.5 a3.13 3.13 0 1 0 6.26 0 a3.13 3.13 0 1 0 -6.26 0zM1009.37 162.5 a3.13 3.13 0 1 0 6.26 0 a3.13 3.13 0 1 0 -6.26 0z" fill="black"></path><path d="M834.37 287.5 a3.13 3.13 0 1 0 6.26 0 a3.13 3.13 0 1 0 -6.26 0zM784.37 212.5 a3.13 3.13 0 1 0 6.26 0 a3.13 3.13 0 1 0 -6.26 0z" fill="black"></path><path d="M759.37 262.5 a3.13 3.13 0 1 0 6.26 0 a3.13 3.13 0 1 0 -6.26 0zM809.37 262.5 a3.13 3.13 0 1 0 6.26 0 a3.13 3.13 0 1 0 -6.26 0z" fill="black"></path><path d="M1359.37 437.5 a3.13 3.13 0 1 0 6.26 0 a3.13 3.13 0 1 0 -6.26 0zM1384.37 337.5 a3.13 3.13 0 1 0 6.26 0 a3.13 3.13 0 1 0 -6.26 0z" fill="black"></path><path d="M559.37 437.5 a3.13 3.13 0 1 0 6.26 0 a3.13 3.13 0 1 0 -6.26 0zM609.37 412.5 a3.13 3.13 0 1 0 6.26 0 a3.13 3.13 0 1 0 -6.26 0z" fill="black"></path><path d="M609.37 462.5 a3.13 3.13 0 1 0 6.26 0 a3.13 3.13 0 1 0 -6.26 0zM609.37 512.5 a3.13 3.13 0 1 0 6.26 0 a3.13 3.13 0 1 0 -6.26 0z" fill="black"></path><path d="M84.37 487.5 a3.13 3.13 0 1 0 6.26 0 a3.13 3.13 0 1 0 -6.26 0zM134.37 437.5 a3.13 3.13 0 1 0 6.26 0 a3.13 3.13 0 1 0 -6.26 0z" fill="black"></path><path d="M184.37 112.5 a3.13 3.13 0 1 0 6.26 0 a3.13 3.13 0 1 0 -6.26 0zM134.37 87.5 a3.13 3.13 0 1 0 6.26 0 a3.13 3.13 0 1 0 -6.26 0z" fill="black"></path><path d="M1234.37 562.5 a3.13 3.13 0 1 0 6.26 0 a3.13 3.13 0 1 0 -6.26 0zM1234.37 512.5 a3.13 3.13 0 1 0 6.26 0 a3.13 3.13 0 1 0 -6.26 0z" fill="black"></path><path d="M284.37 62.5 a3.13 3.13 0 1 0 6.26 0 a3.13 3.13 0 1 0 -6.26 0zM259.37 137.5 a3.13 3.13 0 1 0 6.26 0 a3.13 3.13 0 1 0 -6.26 0z" fill="black"></path><path d="M559.37 312.5 a3.13 3.13 0 1 0 6.26 0 a3.13 3.13 0 1 0 -6.26 0zM509.37 112.5 a3.13 3.13 0 1 0 6.26 0 a3.13 3.13 0 1 0 -6.26 0z" fill="black"></path><path d="M1034.37 337.5 a3.13 3.13 0 1 0 6.26 0 a3.13 3.13 0 1 0 -6.26 0zM1059.37 387.5 a3.13 3.13 0 1 0 6.26 0 a3.13 3.13 0 1 0 -6.26 0z" fill="black"></path><path d="M484.37 537.5 a3.13 3.13 0 1 0 6.26 0 a3.13 3.13 0 1 0 -6.26 0zM559.37 537.5 a3.13 3.13 0 1 0 6.26 0 a3.13 3.13 0 1 0 -6.26 0z" fill="black"></path><path d="M534.37 437.5 a3.13 3.13 0 1 0 6.26 0 a3.13 3.13 0 1 0 -6.26 0zM534.37 387.5 a3.13 3.13 0 1 0 6.26 0 a3.13 3.13 0 1 0 -6.26 0z" fill="black"></path><path d="M384.37 137.5 a3.13 3.13 0 1 0 6.26 0 a3.13 3.13 0 1 0 -6.26 0zM359.37 62.5 a3.13 3.13 0 1 0 6.26 0 a3.13 3.13 0 1 0 -6.26 0z" fill="black"></path><path d="M184.37 562.5 a3.13 3.13 0 1 0 6.26 0 a3.13 3.13 0 1 0 -6.26 0zM109.37 562.5 a3.13 3.13 0 1 0 6.26 0 a3.13 3.13 0 1 0 -6.26 0z" fill="black"></path><path d="M1209.37 562.5 a3.13 3.13 0 1 0 6.26 0 a3.13 3.13 0 1 0 -6.26 0zM1209.37 512.5 a3.13 3.13 0 1 0 6.26 0 a3.13 3.13 0 1 0 -6.26 0z" fill="black"></path><path d="M534.37 187.5 a3.13 3.13 0 1 0 6.26 0 a3.13 3.13 0 1 0 -6.26 0zM484.37 312.5 a3.13 3.13 0 1 0 6.26 0 a3.13 3.13 0 1 0 -6.26 0z" fill="black"></path><path d="M259.37 337.5 a3.13 3.13 0 1 0 6.26 0 a3.13 3.13 0 1 0 -6.26 0zM334.37 387.5 a3.13 3.13 0 1 0 6.26 0 a3.13 3.13 0 1 0 -6.26 0z" fill="black"></path><path d="M284.37 437.5 a3.13 3.13 0 1 0 6.26 0 a3.13 3.13 0 1 0 -6.26 0zM284.37 487.5 a3.13 3.13 0 1 0 6.26 0 a3.13 3.13 0 1 0 -6.26 0z" fill="black"></path><path d="M809.37 562.5 a3.13 3.13 0 1 0 6.26 0 a3.13 3.13 0 1 0 -6.26 0zM759.37 562.5 a3.13 3.13 0 1 0 6.26 0 a3.13 3.13 0 1 0 -6.26 0z" fill="black"></path><path d="M1209.37 162.5 a3.13 3.13 0 1 0 6.26 0 a3.13 3.13 0 1 0 -6.26 0zM1159.37 162.5 a3.13 3.13 0 1 0 6.26 0 a3.13 3.13 0 1 0 -6.26 0z" fill="black"></path><path d="M509.37 137.5 a3.13 3.13 0 1 0 6.26 0 a3.13 3.13 0 1 0 -6.26 0zM484.37 212.5 a3.13 3.13 0 1 0 6.26 0 a3.13 3.13 0 1 0 -6.26 0z" fill="black"></path><path d="M34.37 112.5 a3.13 3.13 0 1 0 6.26 0 a3.13 3.13 0 1 0 -6.26 0zM9.37 162.5 a3.13 3.13 0 1 0 6.26 0 a3.13 3.13 0 1 0 -6.26 0z" fill="black"></path><path d="M1234.37 12.5 a3.13 3.13 0 1 0 6.26 0 a3.13 3.13 0 1 0 -6.26 0zM1334.37 12.5 a3.13 3.13 0 1 0 6.26 0 a3.13 3.13 0 1 0 -6.26 0z" fill="black"></path><path d="M584.37 487.5 a3.13 3.13 0 1 0 6.26 0 a3.13 3.13 0 1 0 -6.26 0zM609.37 437.5 a3.13 3.13 0 1 0 6.26 0 a3.13 3.13 0 1 0 -6.26 0z" fill="black"></path><path d="M859.37 437.5 a3.13 3.13 0 1 0 6.26 0 a3.13 3.13 0 1 0 -6.26 0zM834.37 387.5 a3.13 3.13 0 1 0 6.26 0 a3.13 3.13 0 1 0 -6.26 0z" fill="black"></path><path d="M409.37 312.5 a3.13 3.13 0 1 0 6.26 0 a3.13 3.13 0 1 0 -6.26 0zM334.37 287.5 a3.13 3.13 0 1 0 6.26 0 a3.13 3.13 0 1 0 -6.26 0z" fill="black"></path><path d="M1334.37 212.5 a3.13 3.13 0 1 0 6.26 0 a3.13 3.13 0 1 0 -6.26 0zM1409.37 212.5 a3.13 3.13 0 1 0 6.26 0 a3.13 3.13 0 1 0 -6.26 0z" fill="black"></path><path d="M59.37 237.5 a3.13 3.13 0 1 0 6.26 0 a3.13 3.13 0 1 0 -6.26 0zM59.37 287.5 a3.13 3.13 0 1 0 6.26 0 a3.13 3.13 0 1 0 -6.26 0z" fill="black"></path></mask></defs></svg>