<svg width="19" height="18" viewBox="0 0 19 18" fill="none" xmlns="http://www.w3.org/2000/svg">
<path d="M6.15426 18C12.9466 18 16.6633 11.0728 16.6633 5.07579C16.6633 4.8809 16.6633 4.68602 16.6561 4.49114C17.3764 3.85335 18.003 3.04724 18.5 2.13484C17.8373 2.49803 17.1243 2.73721 16.3752 2.85236C17.1387 2.29429 17.7221 1.39961 18.003 0.336614C17.2899 0.859251 16.4976 1.2313 15.6549 1.43504C14.9778 0.549212 14.0198 0 12.961 0C10.9226 0 9.26591 2.0374 9.26591 4.54429C9.26591 4.89862 9.30192 5.24409 9.35954 5.58071C6.29112 5.39468 3.56843 3.57874 1.7461 0.832677C1.42917 1.50591 1.2491 2.28543 1.2491 3.11811C1.2491 4.69488 1.90456 6.08563 2.89136 6.90059C2.28631 6.87402 1.71729 6.67027 1.22029 6.33366C1.22029 6.35138 1.22029 6.36909 1.22029 6.39567C1.22029 8.59252 2.4952 10.435 4.18067 10.8514C3.87095 10.9577 3.54682 11.0108 3.20828 11.0108C2.97059 11.0108 2.7401 10.9843 2.51681 10.9311C2.98499 12.7382 4.35354 14.0492 5.96699 14.0846C4.69928 15.3071 3.10744 16.0335 1.37875 16.0335C1.08343 16.0335 0.788115 16.0157 0.5 15.9715C2.12785 17.247 4.07263 18 6.15426 18Z" fill="white"/>
</svg>
